
<svg width="18px" height="27px" viewBox="0 0 18 27" version="1.1" xmlns="http://www.w3.org/2000/svg" xmlns:xlink="http://www.w3.org/1999/xlink">
    <!-- Generator: Sketch 51.2 (57519) - http://www.bohemiancoding.com/sketch -->
    <desc>Created with Sketch.</desc>
    <defs>
        <polygon id="path-1" points="0 0 17.666 0 17.666 26.323 0 26.323"></polygon>
    </defs>
    <g id="Page-1" stroke="none" stroke-width="1" fill="none" fill-rule="evenodd">
        <g id="static">
            <mask id="mask-2" fill="white">
                <use xlink:href="#path-1"></use>
            </mask>
            <g id="a"></g>
            <path d="M17,2.638 C14.557,1.458 11.498,0 8.114,0 C5.556,0 3.148,0.156 0.484,1.21 C0.18882189,1.3295665 -0.00316096255,1.61754078 3.00974523e-16,1.936 L3.00974523e-16,20.896 C-0.00240179958,21.1027515 0.0779134513,21.3018906 0.223082126,21.449125 C0.368250801,21.5963595 0.566235251,21.6794804 0.773,21.68 C0.980012252,21.6805719 1.17853515,21.5977649 1.32378226,21.4502601 C1.46902937,21.3027552 1.54876466,21.1029788 1.545,20.896 L1.545,2.492 C3.769,1.701 5.789,1.549 8.113,1.549 C10.993,1.549 13.823,2.817 16.226,3.969 L16.226,24.235 C14.099,23.085 11.636,22.07 8.113,22.07 C5.52,22.07 3.293,22.284 0.519,23.267 C0.257481578,23.3573882 0.0640501159,23.5804287 0.0115693775,23.8521044 C-0.0409113609,24.1237801 0.0555316971,24.402817 0.264569383,24.5841044 C0.473607069,24.7653919 0.763481585,24.8213882 1.025,24.731 C3.629,23.809 5.605,23.617 8.113,23.617 C11.943,23.617 14.243,24.852 16.613,26.219 C16.8521116,26.3572898 17.1468884,26.3572898 17.386,26.219 C17.479,26.165 17.572,26.114 17.666,26.061 L17.666,2.969 C17.666,2.969 17.467,2.813 16.999,2.638" id="Shape" fill="#193B44" fill-rule="nonzero" mask="url(#mask-2)"></path>
        </g>
    </g>
</svg>