
<svg width="34px" height="27px" viewBox="0 0 34 27" version="1.1" xmlns="http://www.w3.org/2000/svg" xmlns:xlink="http://www.w3.org/1999/xlink">
    <!-- Generator: Sketch 51.2 (57519) - http://www.bohemiancoding.com/sketch -->
    <desc>Created with Sketch.</desc>
    <defs>
        <polygon id="path-1" points="0 0 17.7 0 17.7 26.323 0 26.323"></polygon>
        <polygon id="path-3" points="0 0 17.7 0 17.7 26.323 0 26.323"></polygon>
    </defs>
    <g id="Page-1" stroke="none" stroke-width="1" fill="none" fill-rule="evenodd">
        <g id="booklet-active">
            <g id="Group" transform="translate(25.000000, 13.500000) scale(-1, 1) translate(-25.000000, -13.500000) translate(16.000000, 0.000000)">
                <g id="Clipped">
                    <mask id="mask-2" fill="white">
                        <use xlink:href="#path-1"></use>
                    </mask>
                    <g id="a"></g>
                    <path d="M17.034,2.638 C14.591,1.458 11.532,0 8.148,0 C5.59,0 3.182,0.156 0.517,1.21 C0.222214696,1.32988355 0.0306754933,1.6177872 0.034,1.936 L0.034,20.896 C0.031,21.103 -0.064,23.849 0.076,24.253 C0.215931763,24.6565393 0.656296088,24.8704561 1.06,24.731 C3.664,23.809 5.639,23.617 8.148,23.617 C11.978,23.617 14.277,24.852 16.648,26.219 C16.8868576,26.3569045 17.1811424,26.3569045 17.42,26.219 C17.513,26.165 17.607,26.114 17.7,26.061 L17.7,2.969 C17.7,2.969 17.502,2.813 17.034,2.638" id="Shape" fill="#C176D3" fill-rule="nonzero" mask="url(#mask-2)"></path>
                </g>
            </g>
            <g id="Group">
                <g id="Clipped">
                    <mask id="mask-4" fill="white">
                        <use xlink:href="#path-3"></use>
                    </mask>
                    <g id="c"></g>
                    <path d="M17.034,2.638 C14.591,1.458 11.532,0 8.148,0 C5.59,0 3.182,0.156 0.517,1.21 C0.222214696,1.32988355 0.0306754933,1.6177872 0.034,1.936 L0.034,20.896 C0.031,21.103 -0.064,23.849 0.076,24.253 C0.215931763,24.6565393 0.656296088,24.8704561 1.06,24.731 C3.664,23.809 5.639,23.617 8.148,23.617 C11.978,23.617 14.277,24.852 16.648,26.219 C16.8868576,26.3569045 17.1811424,26.3569045 17.42,26.219 C17.513,26.165 17.607,26.114 17.7,26.061 L17.7,2.969 C17.7,2.969 17.502,2.813 17.034,2.638" id="Shape" fill="#C176D3" fill-rule="nonzero" mask="url(#mask-4)"></path>
                </g>
            </g>
        </g>
    </g>
</svg>
