<svg width="34px" height="27px" viewBox="0 0 34 27" version="1.1" xmlns="http://www.w3.org/2000/svg" xmlns:xlink="http://www.w3.org/1999/xlink">
    <!-- Generator: Sketch 51.2 (57519) - http://www.bohemiancoding.com/sketch -->
    <desc>Created with Sketch.</desc>
    <defs></defs>
    <g id="Page-1" stroke="none" stroke-width="1" fill="none" fill-rule="evenodd">
        <g id="booklet-open" fill="#193B44">
            <path d="M8.114,0 C5.556,0 3.149,0.156 0.484,1.21 C0.18882189,1.3295665 -0.00316096255,1.61754078 -6.11883049e-16,1.936 L-6.11883049e-16,20.896 C-0.00285755797,21.103181 0.0770472744,21.3029431 0.222,21.451 C0.367933355,21.5971303 0.56597973,21.6792421 0.7725,21.6792421 C0.97902027,21.6792421 1.17706664,21.5971303 1.323,21.451 C1.46820054,21.3026977 1.54812527,21.1025259 1.545,20.895 L1.545,2.493 C3.77,1.7 5.789,1.549 8.113,1.549 C10.993,1.549 13.823,2.816 16.226,3.969 L16.226,24.235 C14.099,23.085 11.636,22.069 8.113,22.069 C5.52,22.069 3.293,22.284 0.519,23.267 C0.139396034,23.4240724 -0.052014018,23.8497837 0.082423327,24.2379815 C0.216860672,24.6261792 0.630556757,24.8423353 1.026,24.731 C3.629,23.809 5.606,23.618 8.113,23.618 C11.943,23.618 14.242,24.852 16.613,26.219 C16.8522771,26.3566719 17.1467229,26.3566719 17.386,26.219 C19.756,24.852 22.056,23.618 25.886,23.618 C28.394,23.618 30.369,23.808 32.973,24.731 C33.2086952,24.8134839 33.4697306,24.7768698 33.6736377,24.6327251 C33.8775448,24.4885804 33.9991371,24.25471 34,24.005 L34,1.936 C34.0033245,1.6177872 33.8117853,1.32988355 33.517,1.21 C30.852,0.156 28.445,0 25.887,0 C22.503,0 19.444,1.458 17,2.638 C14.557,1.458 11.498,0 8.114,0 Z M25.886,1.549 C28.21,1.549 30.23,1.699 32.454,2.492 L32.454,22.952 C30.147,22.26 28.144,22.069 25.886,22.069 C22.364,22.069 19.901,23.085 17.773,24.235 L17.773,3.969 C20.176,2.816 23.007,1.549 25.886,1.549 Z" id="Shape"></path>
        </g>
    </g>
</svg>
