<svg width="398" height="565" viewBox="0 0 398 565" fill="none" xmlns="http://www.w3.org/2000/svg">
<g clip-path="url(#clip0_204_14)">
<rect width="398" height="565" fill="none"/>
<path d="M38.8864 12.473C38.8864 13.3831 38.4977 34.9279 13.6801 34.9279H10.9041V531.072H13.6801C14.7017 531.072 38.8864 531.418 38.8864 553.527V556H359.173V553.527C359.173 552.617 359.562 531.072 384.379 531.072H387.155V34.9279H384.379C383.358 34.9279 359.173 34.5817 359.173 12.473V10H38.8864V12.473Z" stroke="#293888"/>
<path d="M43.2281 13.9568C42.6729 19.4073 39.0641 38.0241 15.3457 38.855V527.204C21.4641 527.689 42.362 530.914 43.2947 552.043H354.831C355.375 546.593 358.995 527.976 382.714 527.145V38.7957C376.595 38.311 355.697 35.0862 354.765 13.9568H43.2281Z" stroke="#293888" stroke-width="3"/>
</g>
<defs>
<clipPath id="clip0_204_14">
<rect width="398" height="565" fill="none"/>
</clipPath>
</defs>
</svg>
