<svg xmlns="http://www.w3.org/2000/svg" width="129" height="41" viewBox="0 0 129 41">
    <defs>
        <linearGradient id="a" x1="-.422%" x2="99.794%" y1="50.092%" y2="50.092%">
            <stop offset="0%" stop-color="#51D2F4"/>
            <stop offset="100%" stop-color="#53D3F4"/>
        </linearGradient>
        <linearGradient id="b" x1="-2.148%" x2="98.502%" y1="50.29%" y2="50.29%">
            <stop offset="0%" stop-color="#51D2F4"/>
            <stop offset="100%" stop-color="#53D3F4"/>
        </linearGradient>
        <linearGradient id="c" x1="-.366%" x2="99.838%" y1="49.871%" y2="49.871%">
            <stop offset="0%" stop-color="#51D2F4"/>
            <stop offset="100%" stop-color="#53D3F4"/>
        </linearGradient>
        <linearGradient id="d" x1=".077%" x2="99.85%" y1="50.015%" y2="50.015%">
            <stop offset="0%" stop-color="#51D2F4"/>
            <stop offset="100%" stop-color="#53D3F4"/>
        </linearGradient>
    </defs>
    <g fill="none" fill-rule="nonzero">
        <path fill="url(#a)" d="M58.737 33.959c-3.654-1.426-8.022-5.17-9.537-10.963.178-.179.357-.446.535-.624 3.03-3.833 7.22-9.715 8.11-16.668.357-3.387-1.069-4.813-2.584-5.17-3.209-.623-6.507 3.744-8.557 11.053-1.07 3.922-1.158 7.487-.624 10.606-1.871 1.961-3.476 2.764-4.813 2.496-.534-.089-.89-.356-1.158-.802-.535-.802-.446-2.317.089-4.01.178-.357.267-.803.356-1.07.535-1.961.892-3.298.98-3.298.179-.802-.267-1.516-.98-1.694-.802-.178-1.515.268-1.693.98 0 0-.357 1.338-.891 3.21-.713 2.406-1.783 4.456-2.763 5.347-1.783 1.694-3.833 2.228-4.814 1.248-1.158-1.07-.534-2.941.179-4.367 1.515-2.942 1.782-4.546 1.871-4.992.09-.802-.445-1.515-1.247-1.604-.803-.09-1.516.446-1.605 1.248 0 .089-.178 1.337-1.604 4.1-2.228 4.367-.713 6.685.356 7.665a4.892 4.892 0 0 0 3.298 1.248c1.783 0 3.744-.891 5.526-2.496.179-.178.357-.356.446-.535.09.179.09.268.178.357.624 1.159 1.694 1.872 3.03 2.139 2.318.446 4.457-.624 6.24-2.14 2.139 5.884 6.774 9.805 10.785 11.32.178.09.356.09.534.09.535 0 1.16-.357 1.337-.892a1.485 1.485 0 0 0-.98-1.782zM49.467 12.3c1.961-6.952 4.546-8.913 5.17-8.913h.09c.088.09.445.624.266 1.96-.623 5.438-3.654 10.25-6.328 13.727-.089-2.05.09-4.278.802-6.774z"/>
        <path fill="url(#b)" d="M91.002 11.943c.98.179 1.872-.445 2.05-1.426.178-.98-.445-1.871-1.337-2.05-.98-.178-1.872.446-2.05 1.426-.178.98.357 1.872 1.337 2.05z"/>
        <path fill="url(#c)" d="M127.902 20.233c-.713-.446-1.515-.179-1.96.445-1.07 1.694-3.655 3.833-6.596 4.457-2.14.445-4.011.089-5.794-1.07h.09c2.762-2.317 3.832-5.793 3.475-8.022-.267-1.247-.89-2.139-1.96-2.495-1.16-.357-2.407-.178-3.477.535-1.693 1.07-2.852 3.208-3.03 5.526a7.915 7.915 0 0 0 .802 4.01c-1.159.714-2.585 1.427-3.922 1.783.179-.535.268-.98.357-1.604 0-1.694-.802-3.387-2.407-4.635-.802-.624-1.158-1.337-.98-1.872.09-.267.357-.445.535-.445h.089c.713.356 1.693.089 2.05-.624.356-.713.089-1.694-.624-2.05-.446-.179-.891-.357-1.337-.357-.446 0-.891.09-1.337.268-3.476.713-5.883 4.367-7.933 7.397-.98 1.427-1.871 2.763-2.673 3.387-.535.446-1.07.624-1.248.446-.268-.178-.535-1.07.089-2.674 1.426-3.476 1.604-5.437 1.515-6.506.09-.624-.178-1.248-.802-1.516-.713-.356-1.694-.089-2.05.624-1.604 2.852-3.387 2.407-4.902 1.783-.179-.09-.268-.09-.446-.178-.802-.268-1.337.089-1.604.267-.624.446-.892 1.248-.624 1.96.267 1.16-.09 3.031-1.337 4.368-1.694 1.694-3.476 1.694-4.546 1.248-1.07-.446-1.515-1.515-1.337-2.852.268-2.407 2.318-4.19 4.279-4.902.802-.268 1.336-.178 1.604-.178.802.178 1.604-.357 1.782-1.16.179-.801-.356-1.604-1.158-1.782-.713-.178-1.872-.267-3.298.268a10.256 10.256 0 0 0-4.278 2.94l-.09.09c-1.515 1.426-3.208 1.426-4.99.09-.09-.09-.179-.09-.179-.18-.624-.356-1.337-.356-1.96.09-.625.446-.892 1.248-.625 1.96.268 1.16-.089 3.031-1.337 4.368-1.693 1.694-3.476 1.694-4.545 1.248-1.07-.446-1.516-1.515-1.337-2.852.267-2.407 2.317-4.19 4.278-4.902.713-.268 1.337-.178 1.604-.178.802.178 1.605-.357 1.783-1.16.178-.801-.357-1.604-1.159-1.782-.713-.178-1.872-.267-3.298.268-3.387 1.247-5.882 4.1-6.239 7.397-.267 2.585.892 4.813 3.12 5.883.802.357 1.693.624 2.674.624 1.871 0 3.832-.802 5.437-2.407 1.426-1.426 2.05-3.208 2.228-4.813.98.357 1.96.446 2.941.357 0 .089-.089.267-.089.356-.267 2.585.891 4.813 3.12 5.883.802.357 1.693.624 2.674.624.802 0 1.515-.178 2.317-.446-1.872 2.852-4.902 5.616-10.16 7.042-.714.178-1.605.267-2.497.356-.802.09-1.337.713-1.337 1.515.09.713.714 1.337 1.427 1.337h.089c1.07-.089 2.05-.178 3.12-.445 11.14-3.12 13.904-11.676 14.617-16.222 0-.09 0-.178.089-.357 0-.178.089-.356.089-.534 1.515.356 2.674.178 3.743-.268-.178.446-.356.98-.534 1.515-1.07 2.585-.713 4.903.89 6.061.447.357 1.16.624 1.873.624.891 0 1.871-.356 2.852-1.248 1.07-.89 2.05-2.317 3.12-4.01.98-1.427 2.139-3.12 3.297-4.368.268 1.07.98 2.05 2.05 2.941.802.624 1.248 1.427 1.248 2.14 0 .534-.267.98-.802 1.337-.446.356-.98.356-1.337.267-.446-.09-.891-.357-1.07-.713-.445-.713-1.337-.98-2.05-.535-.713.446-.98 1.337-.534 2.05.534.891 1.337 1.515 2.317 1.961.98.446 2.14.624 3.209.624 1.426 0 2.763-.268 3.654-.535 1.872-.535 3.565-1.426 4.813-2.228.267.178.446.356.713.535 2.407 1.604 5.17 2.139 8.022 1.515 3.922-.802 7.13-3.565 8.467-5.794.178-.624-.089-1.515-.713-1.871zm-16.132 1.604c-.268-.713-.446-1.426-.357-2.05.09-1.694.98-2.852 1.694-3.298.178-.089.534-.267.802-.267h.178c.09.089.178.535.178 1.158-.089 1.248-.802 3.12-2.495 4.457z"/>
        <path fill="url(#d)" d="M37.524 32.354c-5.259 5.259-18.361 7.487-27.452 2.496-4.279-2.317-6.863-6.507-6.774-10.696.089-2.495 1.159-4.724 3.12-6.328 1.782-1.426 3.921-2.139 5.971-1.783.713.09 1.426-.089 1.872-.623.802-.892.446-1.961.267-2.496v-.09c-.445-3.386.892-6.327 3.655-7.932 2.674-1.515 5.882-1.426 8.11.357 2.674 2.05 2.585 4.634 2.585 4.724 0 .89.624 1.604 1.515 1.604.892 0 1.605-.624 1.605-1.515 0-.179.178-4.279-3.833-7.309C24.867.267 20.322 0 16.578 2.228c-3.743 2.229-5.704 6.15-5.258 10.607-2.407 0-4.813.891-6.863 2.585-2.674 2.139-4.1 5.258-4.279 8.645C0 29.413 3.298 34.761 8.646 37.613c4.01 2.14 8.645 3.12 13.102 3.12 7.22 0 14.172-2.407 18.004-6.15a1.56 1.56 0 0 0 0-2.229 1.56 1.56 0 0 0-2.228 0z"/>
    </g>
</svg>
