<svg width="190" height="109" viewBox="0 0 190 109" fill="none" xmlns="http://www.w3.org/2000/svg">
	<path d="M69.7629 88.1096C69.7629 88.1096 83.738 76.409 101.462 83.9074C115.89 89.9311 122.03 90.0468 132.593 88.9095L174.74 29.4913C174.74 29.4913 161.671 31.4189 139.976 25.9734C118.281 20.528 109.076 34.6091 109.076 34.6091L69.7629 88.1192V88.1096Z" fill="#ECDFEF"/>
	<path d="M165.873 12.7789L125.085 66.9733C125.085 66.9733 111.11 73.7874 94.5231 74.5873C80.2107 75.2716 74.187 82.2013 69.8691 88.1094L108.951 33.915C108.951 33.915 113.838 25.6167 128.497 23.1205C143.609 20.5086 165.873 12.7789 165.873 12.7789Z" fill="#F6F4F1"/>
	<path d="M69.763 88.1095C69.763 88.1095 61.9274 76.409 47.1523 80.6111C28.6378 85.9506 21.8141 88.4468 15 87.6565L66.3512 19.6027C66.3512 19.6027 92.8267 9.94541 112.932 29.5973L69.763 88.1095Z" fill="white"/>
	<path d="M69.763 88.1095C69.763 88.1095 61.9274 76.409 47.1523 80.6111C28.6378 85.9506 21.8141 88.4468 15 87.6565L66.3512 19.6027C66.3512 19.6027 92.8267 9.94541 112.932 29.5973L69.763 88.1095Z" fill="#ECDFEF"/>
	<path d="M52.4918 107.993L120.546 19.2653C122.589 16.6535 121.905 12.9043 119.187 11.0827L105.443 1.99407C102.947 0.288149 99.5348 0.85679 97.7132 3.24701L29.1968 92.5333L45.3308 93.2176L52.4918 107.983V107.993Z" fill="#9E21BD"/>
</svg>
