<svg width="190" height="109" viewBox="0 0 190 109" fill="none" xmlns="http://www.w3.org/2000/svg">
	<path d="M102.31 92.02H87.51V95.78H102.31V92.02Z" fill="#9E21BD"/>
	<path d="M162.2 11.5V91.35C162.2 92.31 161.41 93.1 160.45 93.1H29.75C28.79 93.1 28 92.31 28 91.35V11.75C28 10.79 28.79 10 29.75 10H160.71C161.54 10 162.21 10.67 162.21 11.5H162.2Z" fill="url(#paint0_linear_6137_11544)"/>
	<path d="M143.3 14.7H156.25C156.61 14.7 156.9 14.99 156.9 15.35V87.6399C156.9 87.9999 156.61 88.29 156.25 88.29H33.8499C33.4899 88.29 33.2 87.9999 33.2 87.6399V15.35C33.2 14.99 33.4899 14.7 33.8499 14.7H143.3Z" fill="url(#paint1_linear_6137_11544)"/>
	<path d="M68.93 76.14C83.19 76.14 94.75 64.58 94.75 50.32C94.75 36.06 83.19 24.5 68.93 24.5C54.67 24.5 43.11 36.06 43.11 50.32C43.11 64.58 54.67 76.14 68.93 76.14Z" fill="#C176D3"/>
	<path d="M133.12 94.66H56.7V98.42H133.12V94.66Z" fill="url(#paint2_linear_6137_11544)"/>
	<defs>
		<linearGradient id="paint0_linear_6137_11544" x1="28" y1="51.55" x2="162.2" y2="51.55" gradientUnits="userSpaceOnUse">
			<stop stop-color="#9E21BD"/>
			<stop offset="1" stop-color="#ECDFEF"/>
		</linearGradient>
		<linearGradient id="paint1_linear_6137_11544" x1="33.2" y1="51.5" x2="156.9" y2="51.5" gradientUnits="userSpaceOnUse">
			<stop offset="0.38" stop-color="#DAB5E4"/>
			<stop offset="0.42" stop-color="#DCBAE5"/>
			<stop offset="0.66" stop-color="#EADAEB"/>
			<stop offset="0.86" stop-color="#F2EDEF"/>
			<stop offset="1" stop-color="#F6F4F1"/>
		</linearGradient>
		<linearGradient id="paint2_linear_6137_11544" x1="94.91" y1="98.11" x2="94.91" y2="95.27" gradientUnits="userSpaceOnUse">
			<stop stop-color="#DAB5E4"/>
			<stop offset="0.36" stop-color="#D09DDD"/>
			<stop offset="1" stop-color="#C176D3"/>
		</linearGradient>
	</defs>
</svg>
