<svg width="190" height="109" viewBox="0 0 190 109" fill="none" xmlns="http://www.w3.org/2000/svg">
	<path opacity="0.3" d="M137.73 31.5V80.82C137.73 84.25 134.89 87.09 131.46 87.09H62.27C58.84 87.09 56 84.25 56 80.82V31.5C56 28.07 58.84 25.23 62.27 25.23H131.46C135.01 25.23 137.73 28.07 137.73 31.5Z" fill="#DAB5E4"/>
	<path d="M120.1 21.6801H126.49C128.97 21.6801 130.98 23.6901 130.98 26.1701V75.4901C130.98 77.9701 128.97 79.9801 126.49 79.9801H57.1799C54.6999 79.9801 52.6899 77.9701 52.6899 75.4901V26.1701C52.6899 23.6901 54.6999 21.6801 57.1799 21.6801H120.1Z" fill="#9E21BD"/>
	<path opacity="0.3" d="M44.7601 82.71C44.8801 84.6 45.0001 87.56 41.6801 88.39L9.98005 94.78H9.15005C7.61005 94.78 6.67005 94.19 6.07005 93.72C4.89005 92.66 4.18005 90.88 4.18005 88.63V24.17C4.18005 20.39 5.84005 17.66 8.08005 17.66H8.55005L29.6001 22.98L41.0701 26.53C43.2001 26.77 44.6201 29.37 44.6201 33.04V81.53C44.7401 81.88 44.7401 82.36 44.7401 82.71H44.7601Z" fill="#ECDFEF"/>
	<path d="M32.82 22.04L35.78 22.87C36.96 22.87 37.91 25 37.91 27.6V76.09C37.91 78.69 38.38 80.7 36.25 81.29L4.55 87.56C1.95 87.91 1 85.79 1 83.18V18.73C1 16.13 1.95 14 3.13 14L24.18 19.32" fill="url(#paint0_linear_6137_11545)"/>
	<path d="M13.42 62.9101C17.6836 62.9101 21.14 55.1914 21.14 45.6701C21.14 36.1487 17.6836 28.4301 13.42 28.4301C9.15631 28.4301 5.69995 36.1487 5.69995 45.6701C5.69995 55.1914 9.15631 62.9101 13.42 62.9101Z" fill="#C176D3"/>
	<path opacity="0.3" d="M188.35 24.17V88.63C188.35 90.88 187.76 92.65 186.46 93.72C185.87 94.19 184.92 94.78 183.38 94.78H182.67L150.85 88.39C147.54 87.56 147.66 84.61 147.66 82.71V33.03C147.66 29.36 149.08 26.76 151.21 26.52L154.05 25.69L162.68 22.97L183.85 17.65H184.32C186.69 17.65 188.34 20.25 188.34 24.16L188.35 24.17Z" fill="#DAB5E4"/>
	<path d="M149.67 22.04L146.71 22.87C145.53 22.87 144.58 25 144.58 27.6V76.09C144.58 78.69 144.11 80.7 146.24 81.29L177.94 87.56C180.54 87.91 181.49 85.79 181.49 83.18V18.73C181.49 16.13 180.54 14 179.36 14" fill="url(#paint1_linear_6137_11545)"/>
	<path d="M167.89 72.86L152.37 70.27C150.79 70.01 149.64 68.64 149.64 67.04V31.93C149.64 30.45 150.63 29.16 152.05 28.77L167.97 24.44C170.06 23.87 172.12 25.46 172.1 27.63L171.7 69.66C171.68 71.67 169.87 73.19 167.89 72.85V72.86Z" fill="#C176D3"/>
	<path d="M124.06 31.99H59.7401C58.398 31.99 57.3101 33.0779 57.3101 34.42V68.52C57.3101 69.862 58.398 70.95 59.7401 70.95H124.06C125.402 70.95 126.49 69.862 126.49 68.52V34.42C126.49 33.0779 125.402 31.99 124.06 31.99Z" fill="#DAB5E4"/>
	<path d="M89.85 47.8501L94.6701 50.89C95.1001 51.16 95.1001 51.7801 94.6701 52.0501L89.85 55.0901C89.4 55.3801 88.8 55.0501 88.8 54.5101V48.4401C88.8 47.9001 89.39 47.58 89.85 47.86V47.8501Z" fill="#F6F4F1"/>
	<defs>
		<linearGradient id="paint0_linear_6137_11545" x1="-3.96" y1="45.67" x2="43.92" y2="65.03" gradientUnits="userSpaceOnUse">
			<stop offset="0.17" stop-color="#DAB5E4"/>
			<stop offset="0.22" stop-color="#DCBAE5"/>
			<stop offset="0.54" stop-color="#EADAEB"/>
			<stop offset="0.81" stop-color="#F2EDEF"/>
			<stop offset="1" stop-color="#F6F4F1"/>
		</linearGradient>
		<linearGradient id="paint1_linear_6137_11545" x1="141.3" y1="62.38" x2="186.12" y2="47.46" gradientUnits="userSpaceOnUse">
			<stop offset="0.38" stop-color="#DAB5E4"/>
			<stop offset="0.42" stop-color="#DCBAE5"/>
			<stop offset="0.66" stop-color="#EADAEB"/>
			<stop offset="0.86" stop-color="#F2EDEF"/>
			<stop offset="1" stop-color="#F6F4F1"/>
		</linearGradient>
	</defs>
</svg>
