<svg width="190" height="109" viewBox="0 0 190 109" fill="none" xmlns="http://www.w3.org/2000/svg">
	<path opacity="0.3" d="M69.1 108.3L0.5 60.6001L131.4 21.1001L133.4 62.9001L154.4 54.1001L185.2 54.7001L189.6 56.6001L69.1 108.3Z" fill="#DAB5E4"/>
	<path d="M69.1 105.6L0.5 57.9L131.4 18.3L133.4 60.1001L154.4 51.4L186.4 52.4L189.6 53.9L69.1 105.6Z" fill="#9E21BD"/>
	<path d="M132.8 73.2001C132.8 73.2001 113.6 66.5001 98 81.2001C85.2 93.2001 78.9 95.7001 67.4 98.6001L0 52.9001C0 52.9001 14.4 49.8001 35 35.7001C55.6 21.6001 70.8 32.6001 70.8 32.6001L132.8 73.2001Z" fill="#ECDFEF"/>
	<path d="M2.79999 32L66.7 72.7C66.7 72.7 84 74.3 101.7 68.7C117 63.8 126 68.6 132.9 73.2L70.6 31.8C70.6 31.8 62.3 25.1 45.9 28.2C29.1 31.3 2.79999 32 2.79999 32Z" fill="#F6F4F1"/>
	<path d="M132.8 73.2001C132.8 73.2001 136.3 57.8 153.5 56.5C174.9 54.8 183.1 54.8 190 51.3L109.6 0.300049C109.6 0.300049 78.2 0.600046 64.8 29L132.8 73.2001Z" fill="white"/>
	<path d="M132.6 72.9C132.6 72.9 136.1 57.5 153.3 56.2C174.7 54.5 182.9 54.5 189.8 51L109.4 0C109.4 0 78 0.300001 64.6 28.7L132.6 72.9Z" fill="#F6F4F1"/>
	<path d="M132.8 73.2001C132.8 73.2001 136.3 57.8 153.5 56.5C174.9 54.8 183.1 54.8 190 51.3L109.6 0.300049C109.6 0.300049 78.2 0.600046 64.8 29L132.8 73.2001Z" fill="url(#paint0_linear_6072_10736)"/>
	<defs>
		<linearGradient id="paint0_linear_6072_10736" x1="116.706" y1="61.2169" x2="127.039" y2="40.8393" gradientUnits="userSpaceOnUse">
			<stop offset="0.00196455" stop-color="#ECDFEF"/>
			<stop offset="1" stop-color="#F6F4F1" stop-opacity="0"/>
		</linearGradient>
	</defs>
</svg>
