<svg version="1.0" xmlns="http://www.w3.org/2000/svg"
     width="100%" height="100%" viewBox="0 0 1463.000000 151.000000"
 preserveAspectRatio="xMidYMid meet">

<g transform="translate(0.000000,151.000000) scale(0.100000,-0.100000)">
<path d="M6192 1215 c-41 -18 -66 -71 -56 -120 14 -78 119 -188 252 -266 l59
-34 26 -85 c14 -47 28 -92 31 -100 5 -13 -17 -15 -171 -14 -236 0 -242 3 -288
109 -59 137 -141 190 -200 130 -62 -61 -7 -156 140 -241 l49 -28 -99 -14
c-105 -14 -235 -10 -296 7 -66 20 -117 66 -130 115 -17 70 -69 71 -69 1 0 -67
88 -152 188 -182 43 -13 85 -17 172 -14 63 2 151 4 196 5 l81 1 51 -46 c61
-55 96 -67 123 -43 11 9 19 25 19 34 0 19 -43 61 -82 81 -24 12 -7 14 150 16
97 2 184 1 193 -2 10 -3 31 -28 49 -54 38 -61 130 -148 163 -156 81 -21 113
19 82 101 -26 68 -76 119 -141 144 -30 11 -63 20 -73 20 -19 0 -61 82 -76 149
-6 28 -5 33 8 28 50 -19 167 -51 285 -78 223 -51 318 -105 405 -233 34 -50 40
-67 38 -103 -2 -37 2 -45 22 -54 42 -19 68 3 66 55 -2 34 4 53 35 98 85 128
185 186 410 238 76 17 173 42 215 55 41 13 77 22 79 20 5 -5 -14 -65 -40 -128
-14 -32 -26 -47 -39 -47 -10 0 -43 -9 -73 -21 -68 -25 -128 -89 -146 -154 -18
-65 -3 -95 45 -95 20 0 48 6 63 14 34 17 120 108 150 158 13 20 31 39 40 42
10 3 98 5 195 3 135 -1 172 -5 153 -12 -35 -15 -86 -65 -86 -85 0 -9 8 -25 19
-34 27 -24 58 -13 121 42 l54 47 75 -1 c42 -1 130 -3 196 -5 140 -4 208 12
277 64 77 59 113 144 73 177 -23 19 -38 7 -54 -46 -13 -39 -25 -55 -62 -80
-79 -53 -185 -64 -369 -41 l-94 13 49 28 c110 64 165 128 165 191 0 37 -42 75
-81 75 -47 0 -116 -75 -152 -167 -26 -65 -30 -71 -70 -84 -29 -10 -94 -14
-215 -14 -149 0 -171 2 -166 15 3 8 17 54 31 101 26 83 28 87 74 113 132 74
249 194 263 270 15 78 -51 144 -134 133 -99 -13 -160 -110 -235 -374 -5 -17
-105 -52 -245 -85 -329 -78 -418 -121 -516 -251 -23 -32 -47 -57 -51 -55 -4 1
-30 30 -57 65 -83 107 -184 162 -386 210 -156 37 -279 72 -326 92 -34 15 -43
26 -49 52 -19 90 -59 193 -96 248 -61 92 -129 120 -207 86z m112 -76 c33 -26
70 -89 96 -164 28 -82 27 -90 -11 -68 -80 46 -189 166 -189 208 0 47 57 61
104 24z m2119 0 c16 -25 1 -62 -45 -114 -51 -58 -161 -141 -166 -126 -12 35
66 199 111 237 34 28 83 30 100 3z m317 -366 c0 -17 -77 -99 -86 -90 -7 7 23
66 49 94 21 24 37 22 37 -4z m-2808 0 c22 -25 51 -84 44 -90 -9 -9 -86 73 -86
91 0 21 23 20 42 -1z m765 -293 c28 -17 84 -100 67 -100 -14 0 -65 43 -94 80
-35 44 -24 52 27 20z m1263 -20 c-29 -37 -80 -80 -94 -80 -17 0 39 83 67 100
51 32 62 24 27 -20z"/>
</g>
</svg>
