<svg version="1.0" xmlns="http://www.w3.org/2000/svg"
     width="100%" height="100%" viewBox="0 0 1463.000000 151.000000"
 preserveAspectRatio="xMidYMid meet">

<g transform="translate(0.000000,151.000000) scale(0.100000,-0.100000)">
<path d="M7220 1195 l-84 -85 -56 55 -55 55 -220 -220 -220 -220 -593 0 c-534
0 -593 -2 -599 -16 -3 -9 0 -20 8 -25 8 -5 277 -9 599 -9 l585 0 215 -215
c118 -118 219 -215 225 -215 5 0 33 24 62 52 l53 52 88 -87 87 -87 85 85 c47
47 89 85 94 85 6 0 34 -24 63 -52 l53 -53 218 218 217 217 585 0 c322 0 591 4
599 9 8 5 11 16 8 25 -6 14 -65 16 -599 16 l-593 0 -220 220 -220 220 -55 -55
-56 -55 -84 85 c-47 47 -89 85 -95 85 -6 0 -48 -38 -95 -85z m168 -192 l-73
-73 -72 72 -73 73 72 72 73 73 72 -72 73 -73 -72 -72z m-323 117 l39 -40 -149
-150 -150 -150 -85 0 -85 0 190 190 c104 105 192 190 195 190 3 0 24 -18 45
-40z m740 -150 l190 -190 -85 0 -85 0 -150 150 -149 150 39 40 c21 22 42 40
45 40 3 0 91 -85 195 -190z m-590 0 l69 -70 -69 -70 -69 -70 67 -68 c37 -37
67 -72 67 -78 0 -5 -32 -41 -70 -79 l-70 -70 -145 145 -145 145 142 142 c79
79 145 143 148 143 3 0 37 -31 75 -70z m423 -73 l142 -142 -145 -145 -145
-145 -72 73 -73 72 73 72 72 73 -72 72 -72 73 69 70 c38 38 72 70 75 70 3 0
69 -64 148 -143z m-675 -315 l147 -148 -43 -42 -42 -42 -190 190 -190 190 85
0 85 0 148 -148z m832 -42 l-190 -190 -42 42 -43 42 147 148 148 148 85 0 85
0 -190 -190z m-400 -30 l69 -70 -69 -70 c-38 -38 -74 -70 -79 -70 -6 0 -41 30
-78 67 l-68 67 72 73 c40 40 75 73 78 73 3 0 37 -31 75 -70z"/>
</g>
</svg>
