<svg version="1.0" xmlns="http://www.w3.org/2000/svg"
     width="100%" height="100%" viewBox="0 0 1463.000000 151.000000"
 preserveAspectRatio="xMidYMid meet">

<g transform="translate(0.000000,151.000000) scale(0.100000,-0.100000)">
<path d="M6813 1066 c-85 -28 -134 -56 -188 -107 l-40 -39 -30 21 c-90 60
-166 71 -366 54 -243 -22 -409 -16 -524 19 -11 4 -2 -2 20 -13 92 -44 181 -53
460 -46 275 6 295 4 370 -39 l43 -26 -20 -42 c-26 -52 -35 -166 -19 -226 22
-79 87 -93 135 -29 32 44 30 174 -4 241 l-25 48 44 39 c24 22 74 54 110 72 60
29 74 32 161 32 81 0 102 -4 140 -24 74 -38 73 -36 21 -105 -77 -101 -94 -209
-56 -344 25 -88 59 -122 121 -122 42 0 51 4 84 38 50 53 73 132 72 242 0 94
-17 154 -58 207 -32 42 -26 50 59 89 44 20 82 29 132 32 62 3 76 0 125 -25 35
-19 66 -45 88 -76 l34 -47 -41 -49 c-70 -84 -83 -138 -43 -183 53 -61 158 56
138 154 -5 24 1 32 47 67 190 144 461 186 777 121 80 -16 166 -30 191 -30 65
0 161 35 206 76 34 32 35 33 6 14 -114 -75 -199 -80 -406 -26 -77 20 -179 40
-228 44 -208 18 -412 -27 -557 -125 -37 -24 -68 -40 -70 -34 -2 5 -16 28 -33
50 -94 130 -244 153 -419 64 l-76 -39 -44 28 c-58 37 -160 68 -219 68 -25 -1
-78 -11 -118 -24z m452 -254 c18 -54 20 -188 3 -244 -26 -89 -104 -127 -147
-72 -48 61 -55 232 -12 314 12 25 37 60 54 78 l32 33 27 -32 c15 -18 34 -53
43 -77z m-635 -24 c35 -77 17 -198 -29 -198 -40 0 -51 119 -20 209 15 42 26
39 49 -11z m1072 -77 c-20 -27 -43 -34 -49 -16 -2 6 11 33 29 60 l33 50 3 -34
c2 -22 -3 -43 -16 -60z"/>
</g>
</svg>
