<svg version="1.0" xmlns="http://www.w3.org/2000/svg"
     width="100%" height="100%" viewBox="0 0 1463.000000 199.000000"
 preserveAspectRatio="xMidYMid meet">

<g transform="translate(0.000000,199.000000) scale(0.100000,-0.100000)">
<path d="M6813 1851 c-122 -42 -172 -104 -181 -223 -8 -116 48 -250 155 -369
21 -23 90 -85 153 -138 63 -52 164 -143 224 -201 l109 -107 -44 -64 c-23 -35
-56 -98 -73 -139 -53 -134 -36 -285 41 -370 l34 -38 -40 -7 c-112 -19 -305 81
-395 204 l-38 51 49 55 c64 72 96 136 101 206 6 88 -33 146 -105 156 -113 15
-195 -162 -149 -320 9 -30 16 -57 16 -60 0 -11 -66 -27 -114 -27 -88 0 -207
86 -271 195 l-28 47 31 58 c41 74 44 139 7 175 -31 32 -38 31 -77 -4 -31 -28
-33 -33 -36 -113 -4 -89 -13 -108 -64 -134 -58 -30 -95 -14 -206 87 -42 39
-106 90 -142 114 -72 48 -198 95 -253 95 -22 0 -37 6 -41 16 -8 21 -47 14 -56
-11 -4 -11 -4 -30 1 -42 7 -18 16 -23 47 -23 114 0 247 -65 391 -190 111 -97
137 -115 192 -125 38 -7 98 12 133 43 13 11 20 13 23 5 11 -32 71 -108 120
-153 105 -96 209 -127 321 -97 l53 14 29 -42 c125 -181 373 -287 541 -230 40
14 49 14 88 0 165 -58 417 49 541 230 l29 42 53 -14 c113 -30 216 1 324 100
47 42 106 118 117 150 3 8 10 6 23 -5 35 -31 95 -50 133 -43 55 10 81 28 193
125 130 115 229 167 348 184 67 9 84 15 90 31 17 47 -30 86 -60 50 -7 -8 -26
-15 -42 -15 -50 0 -179 -49 -248 -95 -36 -24 -100 -75 -142 -114 -128 -117
-170 -127 -245 -58 -20 17 -23 31 -23 90 0 42 -6 82 -15 102 -19 39 -58 60
-85 45 -51 -27 -54 -107 -8 -190 l32 -58 -35 -57 c-62 -104 -178 -185 -265
-185 -48 0 -114 16 -114 27 0 3 7 30 16 60 64 220 -121 430 -233 264 -50 -74
-16 -200 81 -308 l48 -53 -38 -51 c-90 -123 -283 -223 -395 -204 l-39 7 35 40
c104 122 90 323 -34 507 l-44 64 109 107 c60 58 162 149 226 203 125 103 196
181 246 268 71 126 81 266 25 357 -78 127 -304 158 -475 65 -49 -27 -168 -144
-168 -165 0 -6 -13 7 -28 28 -40 54 -112 118 -161 143 -96 49 -230 63 -318 32z
m271 -84 c63 -29 144 -105 174 -163 19 -37 19 -44 6 -93 -11 -45 -11 -58 1
-87 12 -30 18 -34 50 -34 32 0 38 4 50 34 12 29 12 42 1 87 -13 49 -13 56 6
93 29 58 111 134 174 163 82 37 202 43 269 14 90 -40 117 -81 117 -176 -1 -71
-24 -140 -75 -216 -46 -70 -105 -130 -242 -245 -77 -64 -300 -268 -300 -274 0
0 -38 37 -85 82 -47 44 -148 135 -225 200 -204 175 -284 282 -304 410 -18 105
11 165 100 211 50 27 60 28 140 24 65 -3 101 -11 143 -30z m-248 -1002 c8 -21
12 -46 8 -63 -11 -46 -51 -116 -83 -146 l-30 -29 -11 27 c-14 39 -12 141 4
179 31 76 87 91 112 32z m1040 18 c41 -41 59 -163 34 -229 l-11 -27 -30 29
c-32 30 -72 100 -83 146 -10 43 17 98 48 98 13 0 32 -8 42 -17z m-512 -101
c19 -31 44 -86 56 -122 40 -117 10 -252 -68 -305 -34 -23 -36 -24 -65 -7 -38
22 -66 63 -83 119 -20 66 -17 128 9 203 27 75 93 184 107 175 5 -3 24 -31 44
-63z"/>
</g>
</svg>
