<svg version="1.0" xmlns="http://www.w3.org/2000/svg"
     width="100%" height="100%" viewBox="0 0 1463.000000 249.000000"
 preserveAspectRatio="xMidYMid meet">

<g transform="translate(0.000000,249.000000) scale(0.100000,-0.100000)">
<path d="M6864 2316 c-248 -62 -395 -207 -455 -447 -17 -64 -20 -104 -17 -179
l4 -97 -71 -6 c-161 -12 -304 -127 -305 -245 0 -27 -3 -32 -17 -28 -55 16
-116 16 -192 2 -150 -29 -199 -21 -255 40 -39 42 -66 41 -66 -2 0 -19 13 -39
40 -65 58 -55 124 -67 255 -45 160 26 233 16 276 -38 23 -29 50 -34 68 -12 10
11 8 21 -6 47 -46 81 -45 78 -32 117 31 97 115 150 261 167 l57 6 36 -71 c78
-154 199 -236 274 -184 21 15 23 23 19 71 -8 95 -95 187 -208 221 -69 20 -70
21 -70 147 0 109 18 185 66 276 84 159 234 250 454 275 51 5 201 -9 221 -22 5
-3 -24 -27 -64 -54 -91 -61 -215 -189 -245 -253 -117 -250 -30 -491 266 -736
l101 -83 -118 -116 c-141 -141 -164 -181 -169 -297 -4 -94 18 -174 76 -269 49
-81 238 -276 267 -276 29 0 218 195 267 276 58 95 80 175 76 269 -5 115 -28
156 -169 297 l-117 116 100 83 c296 245 383 486 266 736 -30 64 -154 192 -245
253 -40 27 -69 51 -64 55 29 17 176 26 257 15 197 -26 338 -117 418 -269 48
-91 66 -167 66 -276 0 -102 -6 -135 -26 -135 -34 0 -126 -44 -167 -80 -81 -72
-115 -183 -67 -222 70 -56 203 31 272 179 17 35 36 67 42 69 26 10 152 -17
203 -43 60 -30 94 -68 112 -125 13 -39 14 -36 -32 -117 -14 -26 -16 -36 -6
-47 18 -21 47 -17 64 10 19 28 91 56 144 56 20 0 81 -7 136 -16 131 -22 197
-10 255 45 27 26 40 46 40 65 0 43 -27 44 -66 2 -56 -61 -102 -68 -255 -40
-65 12 -102 13 -148 6 l-61 -9 0 28 c0 117 -145 234 -305 246 l-70 6 0 126
c-1 111 -4 135 -28 204 -73 208 -212 334 -431 389 -105 27 -296 22 -396 -11
l-65 -20 -65 21 c-81 26 -306 35 -386 14z m575 -169 c91 -54 205 -172 243
-252 31 -65 33 -78 33 -171 0 -98 -1 -102 -42 -186 -28 -57 -65 -109 -110
-158 -87 -94 -241 -222 -256 -213 -7 4 -48 37 -92 74 -128 105 -210 200 -258
297 -41 84 -42 88 -42 186 0 93 3 107 32 168 51 109 177 227 307 289 56 27 61
27 95 13 20 -8 60 -29 90 -47z m-851 -680 c35 -24 76 -78 87 -114 9 -33 -22
-30 -73 7 -35 25 -102 118 -102 142 0 11 49 -9 88 -35z m1516 -17 c-16 -29
-44 -65 -64 -81 -34 -29 -76 -46 -86 -36 -10 10 24 73 57 106 31 31 109 75
117 66 2 -2 -9 -27 -24 -55z m-644 -510 c105 -105 134 -159 134 -250 -1 -77
-27 -156 -78 -232 -44 -68 -183 -218 -201 -218 -18 0 -157 150 -201 218 -79
118 -100 255 -55 342 35 67 76 115 169 196 l84 74 32 -23 c17 -12 69 -60 116
-107z"/>
</g>
</svg>
