<svg version="1.0" xmlns="http://www.w3.org/2000/svg"
     width="100%" height="100%" viewBox="0 0 1463.000000 151.000000"
 preserveAspectRatio="xMidYMid meet">

<g transform="translate(0.000000,151.000000) scale(0.100000,-0.100000)">
<path d="M7088 1194 c-85 -20 -135 -49 -210 -122 l-68 -65 -39 11 c-86 26
-193 6 -263 -49 -28 -22 -44 -28 -65 -24 -26 5 -27 5 -6 -6 l22 -12 -19 -38
c-38 -74 -18 -139 43 -139 58 0 72 77 26 141 -26 37 -16 52 56 85 54 26 161
33 209 14 l26 -9 -19 -33 c-53 -93 -70 -233 -42 -333 19 -63 84 -131 135 -140
85 -16 139 18 162 102 l13 48 0 -51 c1 -68 25 -133 67 -182 124 -145 348 -91
440 105 l28 60 24 -29 c73 -86 184 -73 284 33 67 71 91 141 85 244 -4 72 -13
105 -55 188 -2 4 20 7 49 7 51 0 139 -32 139 -50 0 -4 -14 -13 -31 -20 -37
-16 -77 -66 -85 -108 -12 -57 61 -102 117 -72 36 20 52 68 46 136 l-6 63 37 4
37 4 -43 1 c-26 1 -57 12 -80 26 -49 32 -115 49 -161 41 -33 -5 -41 -2 -81 36
-89 85 -237 124 -370 97 -71 -15 -77 -15 -112 3 -51 26 -144 49 -193 48 -22 0
-66 -7 -97 -15z m239 -48 l43 -18 -58 -38 c-139 -91 -224 -221 -257 -395 -10
-52 -13 -61 -14 -34 -3 100 -77 246 -151 297 -22 15 -39 30 -40 34 0 14 64 80
107 110 78 53 136 69 238 65 56 -2 106 -11 132 -21z m420 -50 c34 -16 73 -41
88 -56 l28 -29 -46 -21 c-61 -29 -129 -89 -168 -151 -18 -27 -35 -47 -37 -44
-3 2 -8 26 -13 52 -12 81 -48 160 -95 211 -24 28 -44 52 -44 55 0 11 47 15
135 13 74 -2 102 -8 152 -30z m-287 -37 c22 -23 55 -71 72 -107 33 -66 33 -69
33 -207 0 -123 -3 -147 -23 -198 -51 -126 -135 -199 -238 -205 -73 -5 -126 18
-172 73 -38 47 -52 96 -52 187 0 165 78 329 201 423 48 36 115 75 131 75 4 0
26 -19 48 -41z m455 -122 c68 -139 42 -284 -68 -383 -84 -75 -166 -79 -223
-11 -25 30 -26 35 -20 106 9 91 37 149 114 233 44 47 133 106 164 108 3 0 18
-24 33 -53z m-1019 -22 c64 -64 106 -159 112 -251 6 -89 -1 -119 -35 -150 -54
-50 -151 -16 -194 69 -27 51 -35 145 -20 217 15 74 56 160 76 160 8 0 36 -20
61 -45z m1243 -20 c11 -40 1 -88 -25 -116 -19 -21 -74 -25 -92 -7 -30 30 -3
103 50 137 45 29 56 26 67 -14z m-1619 -77 c0 -62 -59 -78 -80 -22 -8 20 -6
36 11 72 l20 47 25 -30 c16 -20 24 -43 24 -67z"/>
</g>
</svg>
