<svg version="1.0" xmlns="http://www.w3.org/2000/svg"
     width="100%" height="100%" viewBox="0 0 1463.000000 90.000000"
 preserveAspectRatio="xMidYMid meet">

<g transform="translate(0.000000,90.000000) scale(0.100000,-0.100000)">
<path d="M7215 650 l-39 -40 144 0 144 0 -39 40 c-38 39 -41 40 -105 40 -64 0
-67 -1 -105 -40z"/>
<path d="M7025 470 c-17 -19 -17 -21 0 -40 18 -20 29 -20 298 -18 250 3 281 5
290 20 9 13 7 22 -7 37 -18 20 -29 21 -291 21 -259 0 -273 -1 -290 -20z"/>
<path d="M7215 250 c38 -39 41 -40 105 -40 64 0 67 1 105 40 l39 40 -144 0
-144 0 39 -40z"/>
</g>
</svg>
