<svg version="1.0" xmlns="http://www.w3.org/2000/svg"
     width="100%" height="100%" viewBox="0 0 1463.000000 90.000000"
 preserveAspectRatio="xMidYMid meet">

<g transform="translate(0.000000,90.000000) scale(0.100000,-0.100000)">
<path d="M7363 558 c-12 -6 -27 -23 -33 -38 -19 -47 6 -97 62 -126 40 -21 64
-17 87 12 40 50 18 133 -40 153 -38 13 -47 13 -76 -1z m81 -47 c10 -11 16 -31
14 -48 -2 -23 -8 -29 -35 -31 -25 -3 -35 2 -49 23 -35 54 27 104 70 56z"/>
<path d="M5194 534 c-16 -23 -16 -28 -1 -58 27 -57 112 -73 137 -26 13 25 -9
84 -38 99 -37 20 -80 13 -98 -15z m97 -35 c8 -15 8 -24 0 -32 -17 -17 -65 4
-69 31 -3 19 1 22 27 22 21 0 34 -7 42 -21z"/>
<path d="M7133 550 c-52 -21 -53 -91 -1 -135 38 -32 72 -32 105 1 32 33 26 77
-17 117 -32 28 -50 32 -87 17z m59 -47 c19 -17 24 -58 9 -68 -15 -9 -60 16
-67 37 -6 20 11 48 29 48 6 0 19 -7 29 -17z"/>
<path d="M7630 543 c-53 -20 -77 -84 -44 -117 48 -49 144 -8 144 62 0 35 -62
70 -100 55z m44 -46 c11 -8 15 -19 10 -30 -7 -19 -47 -33 -63 -22 -17 10 -13
43 7 54 22 13 25 13 46 -2z"/>
<path d="M5435 532 c-41 -4 -68 -18 -60 -32 3 -5 164 -8 358 -9 193 0 395 -5
447 -11 52 -6 227 -13 388 -17 270 -6 292 -5 292 11 0 9 -6 19 -12 21 -7 3
-152 6 -323 9 -170 2 -344 9 -385 15 -69 10 -614 20 -705 13z"/>
<path d="M7814 526 c-47 -21 -58 -62 -24 -96 26 -26 60 -25 94 1 33 26 33 53
1 84 -28 29 -29 29 -71 11z m51 -51 c0 -22 -31 -33 -48 -16 -7 7 -6 15 3 26
17 21 45 15 45 -10z"/>
<path d="M6937 512 c-36 -39 -7 -92 49 -92 54 0 72 47 34 88 -25 27 -61 28
-83 4z m63 -37 c0 -8 -9 -15 -20 -15 -11 0 -20 7 -20 15 0 8 9 15 20 15 11 0
20 -7 20 -15z"/>
<path d="M9326 509 c-53 -41 -16 -107 53 -93 29 6 71 45 71 65 0 19 -42 49
-69 49 -15 0 -40 -9 -55 -21z m71 -20 c18 -18 3 -39 -28 -39 -30 0 -38 17 -17
38 15 15 31 15 45 1z"/>
<path d="M8206 489 c-126 -4 -236 -11 -244 -14 -13 -5 -14 -8 -1 -20 12 -12
34 -12 134 -4 66 5 351 12 633 14 282 3 518 7 523 10 5 4 7 10 4 16 -7 10
-706 9 -1049 -2z"/>
</g>
</svg>
