<svg version="1.0" xmlns="http://www.w3.org/2000/svg"
     width="100%" height="100%" viewBox="0 0 1463.000000 151.000000"
 preserveAspectRatio="xMidYMid meet">

<g transform="translate(0.000000,151.000000) scale(0.100000,-0.100000)">
<path d="M6721 1123 c-44 -23 -70 -58 -77 -105 -14 -85 24 -153 115 -206 l46
-27 -30 -6 c-17 -4 -48 -7 -70 -8 -35 -1 -46 5 -80 40 -96 99 -205 106 -279
19 -70 -84 5 -210 124 -210 57 0 98 20 150 74 41 43 48 46 95 46 77 0 83 -11
25 -49 -27 -17 -59 -46 -71 -63 -29 -41 -36 -121 -16 -171 31 -72 122 -99 187
-55 86 59 92 173 15 274 -14 18 -25 37 -25 43 0 8 148 11 485 11 337 0 485 -3
485 -11 0 -6 -11 -25 -25 -43 -77 -101 -71 -215 15 -274 65 -44 156 -17 187
55 20 50 13 130 -16 171 -12 17 -44 46 -71 63 -58 38 -52 49 25 49 47 0 54 -3
95 -46 52 -54 93 -74 150 -74 119 0 194 126 124 210 -74 87 -183 80 -279 -19
-34 -35 -45 -41 -80 -40 -22 1 -53 4 -70 8 l-30 6 46 27 c91 53 129 121 115
206 -7 48 -34 83 -79 105 -45 22 -85 16 -128 -20 -77 -66 -79 -168 -5 -266 15
-19 26 -39 26 -45 0 -9 -125 -12 -485 -12 -360 0 -485 3 -485 12 0 6 11 26 26
45 58 77 71 165 32 223 -48 70 -110 93 -167 63z"/>
</g>
</svg>
