<svg version="1.0" xmlns="http://www.w3.org/2000/svg"
     width="100%" height="100%" viewBox="0 0 1463.000000 151.000000"
 preserveAspectRatio="xMidYMid meet">

<g transform="translate(0.000000,151.000000) scale(0.100000,-0.100000)">
<path d="M7424 1080 c-67 -27 -117 -141 -117 -270 0 -91 13 -140 53 -203 16
-26 30 -50 30 -53 0 -12 -146 -73 -191 -79 -99 -14 -195 32 -249 120 l-22 35
46 51 c59 65 76 121 48 158 -27 37 -67 39 -102 6 -31 -30 -56 -110 -45 -145 5
-15 0 -26 -17 -40 -145 -123 -359 -188 -583 -177 -60 3 -144 13 -185 22 -170
38 -223 44 -279 33 -62 -11 -132 -44 -176 -83 l-30 -27 35 22 c133 82 191 86
415 29 165 -43 174 -44 320 -43 205 1 327 35 470 130 31 20 57 35 59 33 1 -2
18 -26 36 -52 90 -127 244 -153 413 -69 l79 39 80 -41 c71 -37 89 -41 164 -45
65 -2 97 2 147 18 71 24 146 67 193 113 l32 30 38 -25 c67 -44 144 -60 253
-53 53 3 182 9 286 12 183 6 258 -1 350 -31 11 -3 7 1 -8 10 -15 9 -62 26
-105 37 -69 19 -97 21 -262 18 -391 -7 -399 -7 -457 23 -28 15 -54 31 -58 37
-3 5 4 37 16 69 40 110 15 258 -45 269 -63 13 -105 -49 -106 -153 0 -43 7 -75
25 -113 31 -66 26 -76 -56 -131 -84 -56 -183 -86 -257 -77 -54 6 -182 57 -182
72 0 4 16 25 36 47 60 66 88 139 88 227 0 180 -80 291 -180 250z m75 -49 c29
-29 51 -115 51 -195 0 -82 -21 -135 -76 -203 -43 -52 -49 -49 -94 40 -26 53
-30 70 -30 146 0 109 13 156 55 198 38 38 66 42 94 14z m562 -143 c16 -62 -6
-208 -32 -208 -17 0 -42 66 -46 125 -3 48 0 66 16 93 28 44 48 41 62 -10z
m-1090 -96 c-7 -17 -23 -40 -37 -53 l-24 -22 0 35 c0 41 44 98 62 80 8 -8 7
-19 -1 -40z"/>
</g>
</svg>
