<svg version="1.0" xmlns="http://www.w3.org/2000/svg"
     width="100%" height="100%" viewBox="0 0 1463.000000 151.000000"
 preserveAspectRatio="xMidYMid meet">

<g transform="translate(0.000000,151.000000) scale(0.100000,-0.100000)">
<path d="M7189 1207 c-49 -33 -106 -121 -132 -202 -18 -59 -22 -91 -21 -200 2
-128 8 -160 60 -316 8 -24 -99 -69 -165 -69 -67 0 -108 18 -150 65 l-34 39 46
13 c55 16 127 91 145 151 21 68 16 110 -17 143 -58 58 -134 26 -188 -80 -28
-53 -33 -73 -33 -132 0 -79 -5 -83 -65 -42 -34 22 -37 23 -21 5 10 -12 37 -30
58 -39 21 -10 48 -32 59 -49 30 -49 84 -92 131 -105 60 -16 150 -5 212 25 l52
26 51 -49 c27 -26 76 -61 109 -77 50 -25 71 -29 139 -29 66 0 90 5 138 27 71
33 152 114 192 191 27 50 34 57 61 57 136 0 227 101 223 248 -1 32 -3 29 -15
-25 -15 -70 -33 -110 -60 -134 -34 -30 -82 -49 -123 -49 l-40 0 6 70 c5 61 3
75 -21 124 -46 95 -129 124 -187 67 -67 -68 -19 -199 98 -266 l32 -18 -26 -50
c-80 -159 -251 -234 -385 -168 -50 24 -138 96 -138 113 0 6 33 45 73 88 133
142 181 248 181 405 1 90 -2 106 -27 158 -50 101 -141 136 -218 84z m131 -55
c44 -44 60 -92 60 -182 0 -85 -22 -170 -65 -245 -34 -62 -141 -196 -161 -202
-34 -11 -78 201 -72 347 4 94 8 114 37 175 36 78 52 100 96 126 43 27 63 24
105 -19z m374 -313 c40 -32 56 -71 56 -141 0 -88 -7 -95 -58 -60 -61 40 -92
87 -92 138 0 34 5 47 26 63 33 26 35 26 68 0z m-802 -26 c25 -22 24 -95 -3
-149 -36 -75 -128 -138 -150 -103 -14 22 -10 101 7 153 20 57 73 116 104 116
13 0 32 -7 42 -17z"/>
</g>
</svg>
