<?xml version="1.0" encoding="UTF-8"?>
<svg version="1.1" viewBox="0 0 100 100" width="100%" height="100%" xmlns="http://www.w3.org/2000/svg">
 <path d="m59.375 100h-18.75c-1.7266 0-3.125-1.3984-3.125-3.125v-46.875h-21.875c-1.7266 0-3.125-1.3984-3.125-3.125v-18.75c0-1.7266 1.3984-3.125 3.125-3.125h21.875v-21.875c0-1.7266 1.3984-3.125 3.125-3.125h18.75c0.82812 0 1.625 0.32812 2.2109 0.91406 0.58594 0.58594 0.91406 1.3828 0.91406 2.2109v21.875h21.875c0.82812 0 1.625 0.32812 2.2109 0.91406 0.58594 0.58594 0.91406 1.3828 0.91406 2.2109v18.75c0 0.82812-0.32812 1.625-0.91406 2.2109-0.58594 0.58594-1.3828 0.91406-2.2109 0.91406h-21.875v46.875c0 0.82812-0.32812 1.625-0.91406 2.2109-0.58594 0.58594-1.3828 0.91406-2.2109 0.91406zm-15.625-6.25h12.5v-46.875c0-1.7266 1.3984-3.125 3.125-3.125h21.875v-12.5h-21.875c-1.7266 0-3.125-1.3984-3.125-3.125v-21.875h-12.5v21.875c0 0.82812-0.32812 1.625-0.91406 2.2109-0.58594 0.58594-1.3828 0.91406-2.2109 0.91406h-21.875v12.5h21.875c0.82812 0 1.625 0.32812 2.2109 0.91406 0.58594 0.58594 0.91406 1.3828 0.91406 2.2109z"/>
</svg>
