<?xml version="1.0" encoding="UTF-8"?>
<svg version="1.1" viewBox="21 21 58 58" height="100%" xmlns="http://www.w3.org/2000/svg">
 <path d="m72.238 21.137c-0.13672 0.003906-0.27734 0.03125-0.40234 0.089843-5.5312 2.4609-11.348 4.2109-17.316 5.1992-3.5156 0.11328-6.8242 1.6758-9.1484 4.3164-2.3203 2.6367-3.4453 6.1211-3.1094 9.6211-1.2812-0.22656-2.4141-0.96484-3.1406-2.0391-1.4336-2.1172-3.1289-4.0469-5.0469-5.7383-2.3477-2.0664-5.8789-2.0117-8.1602 0.13281-1.9023 1.793-3.4766 3.9023-4.6562 6.2344-0.12891 0.25781-0.12891 0.5625 0.003907 0.82031 0.12891 0.25781 0.375 0.4375 0.66016 0.48437l3.4258 0.55859c1.5469 0.25 2.7656 1.4492 3.043 2.9883l1.7852 9.9023h-0.003906c0.73438 4.0781 3.1406 7.6602 6.6367 9.8828 3.4961 2.2188 7.7578 2.8789 11.762 1.8125 4.5742-1.2188 9.332 1.207 11.031 5.6289l2.543 6.625c0.32812 0.84766 1.2109 1.3438 2.1016 1.1758 2.5156-0.46875 4.2188-2.8242 3.8789-5.3594-0.007812-0.046875 0.035156-0.082031 0.078125-0.074218 1.543 0.30469 3.1328-0.18359 4.2383-1.3008 1.1055-1.1133 1.582-2.7109 1.2617-4.25-0.007813-0.046875 0.03125-0.085937 0.078125-0.078125 2.1211 0.31641 4.1602-0.9375 4.832-2.9688 0.67578-2.0352-0.21484-4.2578-2.1055-5.2656-0.046874-0.027344-0.046874-0.09375 0-0.12109 1.1953-0.69531 2.0195-1.8906 2.25-3.2539 0.23438-1.3633-0.15234-2.7617-1.0547-3.8125-0.54688-0.64062-1.457-0.83984-2.2188-0.48438-5.2539 2.4336-11.305 2.4609-16.574 0.070313-0.054687-0.023438-0.054687-0.10156 0-0.125 8.9609-3.9727 15.352-12.152 17.035-21.812 0.0625-0.36719-0.074218-0.73828-0.35937-0.98047-0.28516-0.23828-0.67578-0.30859-1.0273-0.17969-1.1914 0.42969-2.3945 0.81641-3.6133 1.1562 1.3789-2.3594 2.1875-5.0156 2.3594-7.7461 0.015624-0.28906-0.089844-0.57422-0.28906-0.78516-0.20312-0.21094-0.48438-0.32813-0.77344-0.32422zm0.019531 0.97656c0.039063 0 0.074219 0.03125 0.070313 0.074219-0.17969 2.918-1.1367 5.7422-2.7656 8.1719-4.0312 1.0117-8.1758 1.5273-12.336 1.5391-4.1406-0.097657-7.9688 2.1992-9.8359 5.8984-0.79297 1.5703-2.3789 2.582-4.1406 2.6367-0.36328-3.2656 0.66016-6.5312 2.8203-9.0078 2.1602-2.4766 5.2578-3.9375 8.543-4.0234 6.0742-1.0039 11.996-2.7773 17.617-5.2852 0.011719 0 0.019531-0.003907 0.03125-0.003907zm2.6523 7.6367c0.042969-0.003906 0.078125 0.035156 0.070313 0.078125-1.6289 9.3359-7.8047 17.246-16.465 21.086-0.37891 0.16797-0.62109 0.54297-0.62109 0.95703 0 0.41016 0.24219 0.78516 0.62109 0.95312 5.5273 2.5078 11.879 2.4805 17.387-0.074219 0.36719-0.17188 0.80469-0.074219 1.0664 0.23047 0.71094 0.83203 1.0195 1.9375 0.83594 3.0156-0.18359 1.0781-0.83594 2.0234-1.7812 2.5742-0.32813 0.19141-0.52734 0.54297-0.51953 0.92188 0.007813 0.37891 0.21875 0.72656 0.55469 0.90625 1.4688 0.78125 2.1602 2.5117 1.6367 4.0938-0.52344 1.582-2.1133 2.5586-3.7578 2.3086-0.33984-0.050781-0.67969 0.066407-0.91797 0.31641-0.23438 0.24609-0.33203 0.59375-0.26562 0.92969 0.25391 1.2188-0.12109 2.4805-0.99609 3.3633-0.875 0.88281-2.1328 1.2695-3.3555 1.0273-0.32812-0.066406-0.67188 0.03125-0.91797 0.26562-0.24609 0.23047-0.36719 0.56641-0.32031 0.90234 0.26953 2.0156-1.0859 3.8906-3.0859 4.2656-0.42969 0.082031-0.85547-0.15625-1.0117-0.5625l-2.543-6.625-0.003907-0.003906c-1.875-4.8867-7.1367-7.5703-12.191-6.2227-3.7383 0.99609-7.7227 0.38281-10.988-1.6953-3.2656-2.0742-5.5117-5.4219-6.1992-9.2266l-1.7812-9.9062c-0.35156-1.9453-1.8906-3.4609-3.8477-3.7773l-3.332-0.54297h0.003906c1.1211-2.1992 2.6133-4.1875 4.4102-5.8789 1.9102-1.7969 4.875-1.8438 6.8438-0.10938 1.8555 1.6367 3.5 3.5 4.8867 5.5508 1.1484 1.6992 3.1094 2.6602 5.1562 2.5312 2.0469-0.13281 3.8711-1.3359 4.793-3.168h-0.007813c1.6992-3.3633 5.1836-5.4531 8.9531-5.3594 6.0273-0.011719 12.004-1.0664 17.672-3.1211 0.003906-0.003906 0.011719-0.003906 0.019531-0.003906z"/>
 <path d="m31.215 36.773c0-0.24609-0.097656-0.48047-0.26953-0.65234-0.17187-0.17188-0.40625-0.26953-0.65234-0.26953-0.24219 0-0.47656 0.097657-0.64844 0.26953s-0.26953 0.40625-0.26953 0.65234c0 0.24219 0.097656 0.47656 0.26953 0.65234 0.17188 0.17188 0.40625 0.26953 0.64844 0.26953 0.24609 0 0.48047-0.097656 0.65234-0.26953 0.17188-0.17578 0.26953-0.41016 0.26953-0.65234z"/>
</svg>
