<?xml version="1.0" encoding="UTF-8"?>
<svg version="1.1" viewBox="20 20 60 60" width="100%" height="100%" xmlns="http://www.w3.org/2000/svg">
 <path d="m26.633 29.902c0.23828-0.015625 0.47656 0.12109 0.58984 0.33594 0.98047 1.7969 1.2773 3.7227 1.2539 5.2383 0.20703-0.25391 0.41406-0.51562 0.64063-0.76953-0.097657-2.3594 2.0039-4.5508 3.668-5.4766 1.8164-0.87109 3.832-1.5469 5.7422-1.1602 0.17578 0.039063 0.31641 0.16797 0.39844 0.33203 0.10938 0.21484 0.11719 0.48828-0.027343 0.67969-1.0664 1.3906-2.9648 2.6953-4.7891 3.7617-1.3438 0.6875-3.5547 2.168-4.8008 2.0586-0.13281 0.28516-0.25391 0.57422-0.39062 0.86719 0.84766-0.66797 1.9141-1.0977 2.9102-1.1562 1.2031-0.0625 2.3086 0.19531 3.8086 0.10547 0.35156-0.03125 0.69141 0.30078 0.67969 0.66016-0.027344 0.66797-0.32812 1.2773-0.78906 1.7148-0.46484 0.4375-1.0742 0.72266-1.793 0.89453-2.0938 0.28516-3.9727 0.03125-5.6055-0.44141-0.5625 1.3555-1.0781 2.8594-1.3828 4.6328 1.8516-1.5352 3.7617-1.8984 5.832-2.0273 0.24219-0.015625 0.44531 0.15234 0.55078 0.36719 0.11328 0.23438 0.11719 0.52734-0.0625 0.71484-1.6094 1.6836-4.0977 3.3398-6.5781 3.3789-0.0625 1.3086 0.011719 2.7617 0.21484 4.3633 0.51562-0.58203 1.0234-1.1992 1.5703-1.8008 1.207-1.3359 2.6016-2.6172 4.5703-3.1484 2-0.53906 4.2891-0.11328 6.4102 0.67578 1.7383 0.64453 3.2773 1.5312 4.5195 2.4023 0.49219-4.5469 2.3477-7.668 5.0078-9.8906 2.8672-2.3984 6.543-3.8672 10.27-5.5273 0.73828-0.15234 1.0078 0.58203 0.74219 0.97266-1.8438 2.4023-2.332 4.3828-2.3711 5.9062-0.03125 1.2109 0.21875 2.0469 0.42188 2.7266 9.5391-1.3438 15.285-2.9727 18.586-6.3125 0.31641-0.32422 0.96875-0.11719 1.0547 0.33203 0.89453 4.6523-1.1719 9.6211-4.4062 13.594-2.9688 3.6445-6.9336 6.4023-10.777 7.3945 0.87109 0.97656 1.9766 2.0469 2.7773 2.9531l13.535 5.4609c0.40234 0.16797 0.49219 0.82031 0.14844 1.0898l-8.0234 6.1172c-0.22656 0.17578-0.57812 0.16406-0.79297-0.03125l-6.4961-5.8359c-7.2852 2.2578-12.641 2.8828-16.957 1.3281-4.3867-1.5781-7.5469-5.375-10.492-11.566-0.55078-1.1328-2.5234-2.4141-4.7422-3.1641-1.3711-0.46484-2.8281-0.71875-4.0469-0.78125 0.26953 1.2227 0.59766 2.5352 1.0469 3.9336l-2.4531-1.9727c-0.125-0.63672-0.23438-1.2656-0.33594-1.8633-0.41016 0.10547-0.77344-0.09375-0.89453-0.3125-0.12891-0.26953-0.039063-0.625 0.19531-0.79688 0.15625-0.11719 0.3125-0.24219 0.46484-0.37109-0.32812-2.332-0.42969-4.3711-0.28516-6.2188-3.4648-1.8555-4.6016-5.3359-3.5195-7.4844 0.097656-0.19531 0.29687-0.33203 0.51172-0.34375 0.15234-0.015625 0.3125 0.035156 0.4375 0.12891 1.5898 1.2734 2.5156 2.6797 3.1523 4.375 0.37891-1.293 0.93359-2.5 1.6758-3.6836-1.5234-0.98047-2.1289-2.3242-2.1172-3.582 0.011718-1.3164 0.57422-2.5078 1.0391-3.4297 0.09375-0.24219 0.34375-0.25781 0.51172-0.34375zm30.938 3.8477c-2.9883 1.3281-5.8281 2.6484-8 4.4648-2.6562 2.2227-4.4453 5.1523-4.7148 10.016-0.039063 0.44531-0.63281 0.71875-0.98438 0.45312-1.1602-0.93359-3.0391-2.043-5.0195-2.7812-1.9844-0.73828-4.0781-1.0781-5.6797-0.64844-1.6328 0.44141-2.832 1.5078-3.9844 2.7812-0.73047 0.80859-1.4844 1.7695-2.2695 2.5859 1.3125 0.22266 3.4336 0.39844 4.7266 0.82422 2.0508 0.74219 4.5469 1.9414 5.4766 3.8086 2.8828 6.0547 5.8047 9.4883 9.7773 10.918 3.9727 1.4297 9.1523 0.87891 16.523-1.4375 0.20312-0.066406 0.4375-0.015625 0.59766 0.12891l6.3672 5.7266 6.7383-5.1328-12.652-5.1016c-0.09375-0.03125-0.17578-0.089844-0.24219-0.16016-0.87109-1.0039-2.5586-2.5273-3.5508-3.8359-0.25781-0.34375-0.039063-0.92969 0.375-1.0078 3.7227-0.63281 7.9922-3.5078 11.066-7.2891 2.8086-3.4531 4.5078-7.6094 4.1953-11.438-3.793 3.1875-9.6367 4.7266-18.832 5.9883-0.29297 0.039063-0.59766-0.16406-0.68359-0.45312-0.13672-0.51172-0.67578-1.8672-0.62891-3.6562 0.22656-1.8555 0.70703-3.4805 1.4062-4.7617zm-25.293 13.062c0.66406-0.17969 1.3086 0.089844 1.4453 0.59766 0.13672 0.50781-0.29297 1.0664-0.95703 1.2461s-1.3086-0.089844-1.4453-0.59766c-0.13672-0.50781 0.29297-1.0664 0.95703-1.2461z"/>
</svg>
