<?xml version="1.0" encoding="UTF-8"?>
<svg version="1.1" viewBox="9 9 82 82" width="100%" height="100%" xmlns="http://www.w3.org/2000/svg">
 <path d="m83.117 63.969c-7.957-13.961-25.582-28.176-43.875-28.332-16.598-0.15234-27.648 5.0586-29.531 13.906l-0.93359-0.19922c0.94531-4.4336 5.7383-14.664 29.746-14.664 0.23828 0 0.47656 0 0.72266 0.003906 18.652 0.15625 36.605 14.613 44.695 28.812z"/>
 <path d="m38.523 64.207c-24.012 0-28.801-10.23-29.742-14.664l0.93359-0.19922c1.8828 8.8477 12.957 14.047 29.527 13.91 18.293-0.15234 35.918-14.367 43.875-28.332l0.82812 0.46875c-8.0898 14.199-26.043 28.656-44.695 28.812-0.24219 0.003906-0.48828 0.003906-0.72656 0.003906z"/>
</svg>
