<?xml version="1.0" encoding="UTF-8"?>
<svg version="1.1" viewBox="5 5 90 90" width="100%" height="100%" xmlns="http://www.w3.org/2000/svg">
 <path d="m52.352 23.902c3.957 5.3672 6.3047 11.973 6.3047 19.059v8.3203c0 2.1367-0.75 4.0977-1.9922 5.6406 9.9727-3.2656 17.195-12.652 17.195-23.699l-0.003906-20.5c-0.77734 0.03125-1.8359 0.039063-3.2734 0.046875-7.9102 0.046875-14.781 4.5664-18.23 11.133z"/>
 <path d="m38.434 95h8.9414l-10.75-11.84c-0.39844-0.4375-0.36328-1.1133 0.070312-1.5078 0.4375-0.39453 1.1133-0.36328 1.5078 0.074218l10.516 11.578v-8.5898c0-0.65234-0.0625-1.2891-0.15234-1.918h2.8633v-21.945h-3.1406v20.543c-1.4844-5.8555-6.7852-10.207-13.098-10.207h-10.289v10.285c0 7.457 6.0703 13.527 13.531 13.527z"/>
 <path d="m51.281 84.715v8.1992l10.527-11.199c0.40625-0.42969 1.0781-0.44922 1.5117-0.046875 0.42969 0.40234 0.44922 1.0781 0.046876 1.5078l-11.113 11.824h9.3164c7.4609 0 13.527-6.0703 13.527-13.527v-10.285h-10.285c-7.4609 0-13.531 6.0664-13.531 13.527z"/>
 <path d="m49.641 58.156c3.793 0 6.8789-3.0859 6.8789-6.8789v-8.3203c0-16.309-13.301-29.867-29.648-30.23-0.26172-0.003906-0.5-0.011718-0.72266-0.019531v21.953c-0.003907 12.957 10.535 23.496 23.492 23.496z"/>
 <path d="m50.914 22.102c2.2734-3.9297 5.6836-7.1172 9.7773-9.125l-6.0625-6.0625c-1.2734-1.2773-2.9531-1.9141-4.6289-1.9141s-3.3555 0.63672-4.6328 1.9141l-6.3438 6.3438c4.6133 2.0117 8.6719 5.0625 11.891 8.8438z"/>
</svg>
