<?xml version="1.0" encoding="UTF-8"?>
<svg version="1.1" viewBox="5 5 90 90" width="100%" height="100%" xmlns="http://www.w3.org/2000/svg">
 <path d="m50 55.945c-1.9531 0-3.8711 0.054688-5.7539 0.14453v-37.816l13.293-5.0898-13.293-5.0938-0.14062-0.054688h-2.0508v48.184c-21.312 1.4648-37.055 8.7227-37.055 17.734 0 10.102 19.766 18.012 45 18.012s45-7.9102 45-18.012c0-10.098-19.766-18.008-45-18.008zm0 33.828c-23.203 0-42.809-7.2422-42.809-15.816 0-7.5742 15.301-14.105 34.863-15.527v14.633h2.1914v-14.77c1.8867-0.10156 3.8086-0.15234 5.7539-0.15234 23.203 0 42.809 7.2422 42.809 15.816 0 8.5703-19.605 15.816-42.809 15.816z"/>
 <path d="m54.191 73.059c0 2.6836-7.2969 2.6836-7.2969 0 0-2.6797 7.2969-2.6797 7.2969 0"/>
</svg>
