<?xml version="1.0" encoding="UTF-8"?>
<svg version="1.1" viewBox="2 2 96 96" width="100%" height="100%" xmlns="http://www.w3.org/2000/svg">
 <path d="m50 90.613c-1.5156 0-3.0352-0.57812-4.1875-1.7305l-35.594-35.543c-10.027-10.016-10.324-26.254-0.66406-36.199 4.8555-5 11.371-7.75 18.352-7.75 6.832 0 13.25 2.6523 18.07 7.4688l4.0195 4.0156 4.0117-4.0156c4.8242-4.8164 11.242-7.4688 18.074-7.4688 6.9844 0 13.504 2.75 18.359 7.7461 9.6641 9.9453 9.3711 26.188-0.65625 36.203l-35.598 35.543c-1.1523 1.1523-2.6719 1.7305-4.1875 1.7305zm-22.094-77.184c-5.875 0-11.363 2.3164-15.449 6.5273-8.1289 8.3711-7.8516 22.062 0.62109 30.52l35.594 35.543c0.73438 0.73438 1.9297 0.73047 2.6641 0l35.594-35.547c8.4727-8.4609 8.7461-22.152 0.61328-30.523-4.0859-4.207-9.5781-6.5234-15.457-6.5234-5.75 0-11.156 2.2305-15.215 6.2852l-5.4375 5.4414c-0.78906 0.79297-2.0703 0.78906-2.8594 0.003906l-5.4492-5.4453c-4.0625-4.0469-9.4648-6.2812-15.219-6.2812zm60.445 38.477h0.011719z"/>
</svg>
