<?xml version="1.0" encoding="UTF-8"?>
<svg version="1.1" viewBox="4 4 92 92" width="100%" height="100%" xmlns="http://www.w3.org/2000/svg">
 <path d="m57.91 78.023c-3.4062 4.2852 2.7461 9.1211 5.9336 4.6172 7.2539-10 13.848-20.66 18.793-31.977 4.1758-9.5586 7.6914-21.758 2.9688-31.758-5.1641-10.988-17.145-3.2969-22.527 2.9688-5.0547 5.9336-8.4609 12.969-11.32 20.219-2.6367-8.793-5.7148-17.363-10.551-25.273-4.7227-8.0273-14.723-16.379-23.844-8.4688-9.2305 8.0234-5.0547 21.207-1.3203 30.879 4.0664 10.551 9.4492 20.66 16.266 29.672 7.6914 10 16.703 18.793 26.703 26.375 1.5391 1.207 3.1875-1.4297 1.5391-2.6367-19.012-14.73-33.52-36.375-40.992-59.234-1.8672-5.7148-4.0664-13.078-0.32812-18.57 4.5039-6.7031 11.207-2.8555 15.055 2.3086 7.582 10.328 10.879 23.516 14.395 35.602 0.87891 3.0781 4.9453 2.7461 5.9336 0 2.9688-8.1328 6.043-16.152 10.879-23.406 2.1992-3.2969 5.0547-7.0312 8.6797-9.0117 5.8242-3.1875 7.4727 2.5273 7.8008 7.3633 0.55078 9.4492-3.8477 18.461-8.1328 26.484-4.7188 8.4609-9.9922 16.484-15.93 23.848z"/>
</svg>
