<?xml version="1.0" encoding="UTF-8"?>
<svg version="1.1" viewBox="1 1 98 98" width="100%" height="100%" xmlns="http://www.w3.org/2000/svg">
 <path d="m98.316 63.484c-0.5625 0-1.1133-0.28125-1.4297-0.79297-13.137-21.09-32.727-33.188-53.758-33.188h-0.011718c-16.727 0.003906-31.68 7.9922-40.004 21.371-0.49219 0.78906-1.5312 1.0312-2.3203 0.53906-0.78906-0.49219-1.0312-1.5312-0.53906-2.3203 8.9414-14.375 24.965-22.957 42.863-22.961h0.011718c22.219 0 42.852 12.672 56.617 34.777 0.49219 0.78906 0.25 1.8281-0.53906 2.3203-0.27734 0.17578-0.58594 0.25391-0.89062 0.25391z"/>
 <path d="m43.172 73.863h-0.011719c-17.914-0.003906-33.953-8.5977-42.906-22.988-0.49219-0.78906-0.25-1.8281 0.53906-2.3203 0.79297-0.49219 1.8281-0.24609 2.3203 0.53906 8.3359 13.395 23.305 21.395 40.047 21.398h0.011719c21.016 0 40.59-12.082 53.715-33.156 0.48828-0.78906 1.5273-1.0352 2.3203-0.53906 0.78906 0.49219 1.0312 1.5312 0.53906 2.3203-13.75 22.082-34.371 34.746-56.574 34.746z"/>
</svg>
