<?xml version="1.0" encoding="UTF-8"?>
<svg version="1.1" viewBox="9 9 82 82" width="100%" height="100%" xmlns="http://www.w3.org/2000/svg">
 <path d="m27.078 49.867-11.176 19.977c-0.17188 0.30859-0.16797 0.6875 0.007812 0.99219 0.17969 0.30469 0.50781 0.49219 0.86328 0.49219h22.238l10.113 18.195c0.17578 0.32422 0.51172 0.51953 0.875 0.51953s0.69922-0.19531 0.875-0.51562l10.113-18.195h22.238c0.35547 0 0.68359-0.1875 0.86328-0.49219 0.17969-0.30469 0.18359-0.68359 0.007812-0.99219l-11.176-19.98 11.18-20.113c0.17188-0.30859 0.16797-0.6875-0.011718-0.99219-0.17969-0.30469-0.50781-0.49219-0.86328-0.49219h-22.391l-9.9648-17.801c-0.35156-0.63281-1.3906-0.63281-1.7461 0l-9.9609 17.801h-22.391c-0.35547 0-0.68359 0.1875-0.86328 0.49219-0.17969 0.30469-0.18359 0.68359-0.011718 0.99219zm-8.5977 19.465 9.7422-17.41 9.6758 17.41zm10.891-19.461 10.969-19.602h19.324l10.969 19.602-10.816 19.461h-19.629zm20.629 37.113-8.6992-15.652h17.402zm31.52-17.652h-19.418l9.6758-17.41zm0.007813-39.062-9.7539 17.547-9.8203-17.547zm-31.527-17.266 8.543 15.266h-17.086zm-11.953 17.266-9.8203 17.547-9.7539-17.547z"/>
</svg>
