<?xml version="1.0" encoding="UTF-8"?>
<svg version="1.1" viewBox="5 5 90 90" width="100%" height="100%" xmlns="http://www.w3.org/2000/svg">
 <path d="m76.801 50 12.898-21.602h-25.699l-14-23.398-14 23.398h-25.699l12.898 21.602-12.898 21.602h25.699l14 23.398 14-23.398h25.699zm2-15.398-5.5 9.3984-5.6016-9.3984zm-9.1016 15.398-9.1992 15.398h-21l-9.1992-15.398 9.1992-15.398h21zm-19.699-33 6.8008 11.398h-13.602zm-28.801 17.602h11.199l-5.5977 9.3984zm0 30.797 5.6016-9.3984 5.6016 9.3984zm28.801 17.602-6.8008-11.398h13.602zm23.301-27 5.6016 9.3984h-11.203z"/>
</svg>
