<?xml version="1.0" encoding="UTF-8"?>
<svg version="1.1" viewBox="4 4 92 92" width="100%" height="100%" xmlns="http://www.w3.org/2000/svg">
 <path d="m57.125 95.84c-0.089844-0.039063-0.25391-0.16406-0.35938-0.27734-0.16016-0.17188-0.21094-0.37109-0.30469-1.1484-0.0625-0.51953-0.24219-1.707-0.40234-2.6406-0.16016-0.93359-0.42578-2.6914-0.58594-3.8984-0.16406-1.2109-0.31641-2.293-0.33984-2.4062l-0.042968-0.20703-1.3867-0.015625c-0.76172-0.007813-1.9102-0.074219-2.5508-0.14844-0.64062-0.074218-1.5547-0.20703-2.0312-0.30078-0.48047-0.09375-1.375-0.3125-1.9922-0.48828-0.61719-0.17578-1.4766-0.45703-1.9062-0.62891-0.43359-0.16797-1.2227-0.53125-1.7617-0.80078-0.53516-0.27344-1.4219-0.79297-1.9688-1.1562-0.54688-0.36328-1.2305-0.89453-1.5234-1.1758s-0.67969-0.74609-0.86328-1.0273c-0.18359-0.28516-0.39844-0.75781-0.48047-1.0547-0.10156-0.37109-0.13281-0.70312-0.10156-1.0703 0.027343-0.34375 0.12109-0.6875 0.26562-0.97656 0.125-0.24609 0.35547-0.60547 0.51172-0.79688s0.57031-0.53516 0.91797-0.76562c0.34766-0.22656 0.91406-0.50781 1.2617-0.62109 0.34766-0.11328 0.87109-0.24609 1.168-0.29297 0.29687-0.046875 0.87891-0.085937 1.2969-0.085937 0.41797 0 1.0898 0.058593 1.4922 0.12891 0.40625 0.070313 1.1211 0.25781 1.5938 0.41406s1.2305 0.48047 1.6875 0.71484 1.2422 0.69922 1.7383 1.0352c0.5 0.33203 1.1953 0.84766 1.5469 1.1406 0.35156 0.29297 0.96484 0.87109 1.3633 1.2852 0.48828 0.50781 0.72656 0.70312 0.72656 0.60156 0-0.085937-0.16406-0.98828-0.36719-2.0078-0.20312-1.0195-0.51562-2.5469-0.69922-3.3906s-0.42969-1.9453-0.54688-2.4453c-0.11719-0.5-0.23047-0.99219-0.25391-1.0898-0.035156-0.16016-0.074218-0.16797-0.39453-0.10547-0.19531 0.039062-0.76562 0.09375-1.2656 0.125-0.53906 0.03125-1.3359 0.015625-1.9492-0.042969-0.57031-0.054688-1.5391-0.19141-2.1562-0.30469-0.61719-0.11328-1.4141-0.28125-1.7773-0.37109-0.35938-0.09375-1.0938-0.3125-1.6328-0.48828-0.53516-0.17578-1.4531-0.53906-2.0391-0.80859-0.58594-0.26953-1.5508-0.78125-2.1406-1.1367-0.58984-0.37109-1.4141-0.91797-1.8281-1.2266-0.41016-0.3125-1-0.82812-1.3008-1.1523-0.30469-0.32031-0.66797-0.78125-0.80469-1.0195-0.13672-0.24219-0.32812-0.67578-0.42578-0.96484-0.14453-0.42578-0.17188-0.66797-0.14453-1.2852 0.027343-0.59375 0.082031-0.86328 0.25-1.2305 0.12109-0.25781 0.37109-0.63672 0.55859-0.84375 0.1875-0.20312 0.53906-0.50391 0.77344-0.66797 0.23828-0.16406 0.69531-0.39453 1.0117-0.51172 0.32031-0.12109 0.85547-0.26953 1.1875-0.33594 0.33594-0.0625 1.0273-0.11719 1.5352-0.11719 0.58984 0 1.1953 0.058594 1.6719 0.16016 0.41016 0.085938 1.0273 0.25781 1.3672 0.38281 0.34375 0.125 0.95703 0.39062 1.3672 0.59766 0.41016 0.20312 1.0586 0.55859 1.4375 0.78906 0.38281 0.23047 1.0586 0.6875 1.5078 1.0234 0.44922 0.33203 1.2617 1 1.8086 1.4766 0.54688 0.48047 1.1719 1.0781 1.3906 1.332s0.41016 0.44922 0.42188 0.43359c0.015625-0.015625-0.21484-0.97656-0.51172-2.1367s-0.73438-2.875-0.98047-3.8086c-0.38672-1.4961-0.46094-1.6992-0.60156-1.6875-0.089844 0.007813-0.45312 0.089844-0.80859 0.18359-0.36719 0.097656-1.1641 0.21094-1.832 0.25781-0.80078 0.058594-1.6133 0.058594-2.5 0-0.72266-0.046874-1.5781-0.125-1.8984-0.17187-0.32031-0.046876-0.96094-0.17578-1.4141-0.28125-0.45703-0.10547-1.1797-0.3125-1.6094-0.45703-0.41797-0.14453-1.1094-0.41016-1.5234-0.59375-0.41797-0.17969-1-0.46484-1.2969-0.625-0.29688-0.16406-0.80469-0.48047-1.1328-0.70703-0.32812-0.22266-0.91016-0.73438-1.293-1.1328-0.38281-0.39453-0.85156-0.98047-1.0391-1.2969-0.18359-0.32031-0.42188-0.82031-0.52734-1.1172-0.14844-0.42188-0.1875-0.72656-0.19141-1.4102-0.003906-0.51172 0.042968-1.043 0.11328-1.2852 0.0625-0.22656 0.22656-0.64063 0.36328-0.91406 0.15234-0.30859 0.46875-0.71875 0.83594-1.082 0.37109-0.36719 0.80469-0.69531 1.1719-0.88672 0.32031-0.16797 0.86328-0.37891 1.2031-0.47656 0.33984-0.09375 0.9375-0.19531 1.3242-0.22266 0.45703-0.03125 1-0.003906 1.5352 0.082032 0.45703 0.070312 1.125 0.22656 1.4883 0.34375 0.36328 0.11719 0.96094 0.36719 1.3281 0.55078 0.36719 0.18359 0.98438 0.54297 1.3711 0.79297 0.38672 0.25391 0.91016 0.61719 1.1602 0.80859 0.25 0.19141 0.79688 0.66406 1.2109 1.0469 0.41406 0.38281 1.1406 1.1133 1.6133 1.625 0.47266 0.51172 0.86719 0.92188 0.88281 0.90625s-0.44141-1.7773-1.0156-3.918c-0.57031-2.1406-1.1562-4.3164-1.2969-4.832-0.18359-0.66797-0.28906-0.92578-0.36719-0.89453-0.058594 0.023437-0.39844 0.10547-0.75391 0.18359-0.46484 0.10156-1.043 0.14062-2.0586 0.14062-0.77734 0-1.7266-0.042969-2.1172-0.10156-0.38672-0.054687-1.1523-0.19141-1.7031-0.30078-0.53516-0.097656-1.2852-0.28516-1.6484-0.40625-0.36328-0.11719-1.1484-0.45312-1.7422-0.74219-0.59375-0.28906-1.4492-0.77734-1.9062-1.082-0.45703-0.30859-1.1484-0.8125-1.5352-1.1172-0.38672-0.30859-0.91797-0.78516-1.1758-1.0547-0.25781-0.27344-0.62109-0.73047-0.80469-1.0156-0.1875-0.28516-0.41016-0.71484-0.5-0.95312-0.089844-0.24219-0.1875-0.66016-0.21875-0.92969-0.039062-0.34766-0.015625-0.65234 0.078125-1.0273 0.078125-0.29688 0.25781-0.73438 0.40625-0.98047 0.14453-0.24609 0.41406-0.57422 0.59766-0.73438 0.17969-0.16016 0.51562-0.39844 0.74609-0.53125 0.22656-0.13281 0.76953-0.35547 1.2031-0.5 0.64453-0.21094 0.96875-0.26562 1.7891-0.30078 0.75-0.03125 1.1758-0.003906 1.6953 0.10156 0.38281 0.078126 0.92188 0.21484 1.1992 0.30859 0.27344 0.09375 0.84766 0.33203 1.2695 0.53125 0.42188 0.19922 1.0938 0.55469 1.4922 0.79297 0.39844 0.23828 1.1172 0.71484 1.5938 1.0625 0.48047 0.34766 1.1602 0.88281 1.5156 1.1992 0.58594 0.51562 0.64062 0.54688 0.58984 0.33203-0.027344-0.13672-0.32422-1.043-0.65625-2.0234-0.32813-0.98047-0.8125-2.3828-1.0703-3.1133-0.26172-0.73047-0.71875-1.9805-1.0156-2.7773-0.47266-1.2734-0.57812-1.4844-0.85547-1.7227-0.17578-0.14844-0.33984-0.38281-0.37109-0.51562-0.042969-0.20312-0.12109-0.26172-0.48438-0.37891-0.23437-0.078125-0.69141-0.28516-1.0117-0.45703-0.32031-0.17578-0.88672-0.54688-1.2617-0.82422-0.37109-0.27734-1.0703-0.87891-1.5547-1.3398-0.48047-0.46094-1.1055-1.1211-1.3867-1.4727-0.28125-0.34766-0.72266-0.95312-0.98047-1.3477-0.26172-0.39453-0.67969-1.125-0.93359-1.6211-0.25-0.49219-0.59375-1.2617-0.75781-1.707-0.16406-0.44141-0.375-1.1133-0.46484-1.4922-0.089844-0.375-0.20312-1.1094-0.25391-1.625-0.0625-0.66797-0.0625-1.1992 0-1.8281 0.050781-0.48828 0.16797-1.168 0.25781-1.5078 0.09375-0.33984 0.30859-0.89844 0.47656-1.2422 0.21484-0.43359 0.48047-0.79688 0.88672-1.207 0.37109-0.375 0.75-0.66797 1.0469-0.80859 0.25781-0.12109 0.62891-0.25391 0.82813-0.30078 0.19922-0.046875 0.58984-0.085937 0.86328-0.085937 0.27344 0 0.74219 0.050781 1.0352 0.11328 0.29688 0.0625 0.75 0.20703 1.0117 0.32422 0.25781 0.11328 0.70703 0.36719 0.99609 0.5625 0.28906 0.19531 0.80469 0.63672 1.1484 0.98828 0.34375 0.35156 0.83984 0.9375 1.1055 1.3086 0.26562 0.37109 0.68359 1.0586 0.92969 1.5312 0.24609 0.46875 0.57812 1.2461 0.73828 1.7266 0.16016 0.48047 0.36328 1.2422 0.45703 1.6992 0.089844 0.45703 0.21094 1.2539 0.26562 1.7734 0.058593 0.57812 0.082031 1.5586 0.050781 2.5312-0.023438 0.87109-0.10547 2.0391-0.18359 2.5938-0.074218 0.55469-0.24219 1.5273-0.36719 2.1562l-0.23047 1.1484 0.16406 0.41406c0.089844 0.22656 0.47266 1.2305 0.84766 2.2305 0.375 0.99609 0.70312 1.7812 0.72656 1.7422 0.023438-0.039063 0.070313-0.31641 0.10547-0.60938 0.035156-0.29687 0.16406-0.96875 0.29297-1.4922 0.12891-0.52344 0.35156-1.2891 0.49219-1.6992 0.14453-0.41016 0.55469-1.3438 0.91016-2.0742 0.35938-0.73047 0.84766-1.625 1.0898-1.9922 0.24219-0.36328 0.79688-1.0195 1.2305-1.4531s1.0039-0.91406 1.2656-1.0664c0.26172-0.15234 0.70703-0.375 0.99609-0.49219 0.375-0.15234 0.72266-0.22266 1.2344-0.25 0.51562-0.027343 0.84766 0.003907 1.1992 0.10547 0.26953 0.078125 0.63672 0.21875 0.82031 0.3125s0.51172 0.31641 0.72656 0.49609c0.21484 0.17969 0.55859 0.57812 0.76172 0.88281 0.20312 0.30469 0.44531 0.74609 0.53516 0.98047 0.089843 0.23047 0.22656 0.70703 0.29687 1.0508 0.070313 0.34766 0.12891 0.96094 0.12891 1.3711 0 0.40625-0.054688 1.0547-0.12109 1.4414-0.066406 0.38672-0.23438 1.0547-0.375 1.4844-0.14062 0.42969-0.47266 1.2305-0.74219 1.7773-0.26953 0.54688-0.69531 1.3047-0.94922 1.6875-0.25391 0.37891-0.70703 0.98438-1.0039 1.3438-0.30078 0.35938-0.8125 0.90234-1.1445 1.207-0.32812 0.30469-0.95312 0.82031-1.3867 1.1484-0.43359 0.32812-1.2227 0.86328-1.75 1.1914-0.53125 0.32812-1.1641 0.69141-1.4102 0.80469-0.25 0.11719-0.59766 0.20703-0.78906 0.20703h-0.34375l0.24219 0.76562c0.13281 0.42188 0.53516 1.7734 0.89844 3.0078 0.35938 1.2305 0.90234 3.1562 1.207 4.2734 0.30469 1.1172 0.5625 2.043 0.57031 2.0508 0.007813 0.011719 0.12109-0.45703 0.25-1.0352 0.12891-0.58203 0.37891-1.5352 0.55859-2.1211 0.17969-0.58594 0.47266-1.4336 0.65625-1.8906 0.17969-0.45312 0.49609-1.1562 0.69922-1.5625s0.5625-1.0664 0.80078-1.4727c0.23828-0.40234 0.67578-1.0898 0.97266-1.5234 0.30078-0.43359 0.86328-1.1094 1.2539-1.5 0.40234-0.40234 0.96094-0.85938 1.293-1.0547 0.32031-0.19141 0.86328-0.44141 1.2031-0.5625 0.36719-0.12891 0.89063-0.23438 1.2891-0.26172 0.49609-0.035156 0.79297-0.007812 1.1562 0.097656 0.26953 0.078125 0.67578 0.26172 0.91016 0.41016 0.23047 0.14844 0.55859 0.42188 0.72266 0.60547 0.16406 0.18359 0.39844 0.5 0.51172 0.69922 0.11719 0.19922 0.31641 0.66016 0.44531 1.0273 0.21875 0.625 0.23047 0.74219 0.22656 1.9922-0.007812 1.168-0.035156 1.4258-0.23047 2.1562-0.125 0.45703-0.35937 1.1484-0.52344 1.5352-0.16406 0.38672-0.50391 1.0703-0.75781 1.5156-0.25391 0.44531-0.75 1.1992-1.1094 1.6758-0.35547 0.47656-1.0508 1.2812-1.5391 1.793-0.48828 0.51172-1.2812 1.2422-1.7617 1.6289-0.48047 0.38672-1.2109 0.91016-1.6211 1.1641-0.41016 0.25391-1.3828 0.77344-2.1562 1.1562-0.77734 0.37891-1.5156 0.69141-1.6484 0.69141-0.15234 0-0.22266 0.039062-0.20312 0.10547 0.019531 0.058594 0.57031 2.1484 1.2266 4.6445 0.65625 2.4961 1.2031 4.5273 1.2148 4.5156 0.015625-0.015624 0.14062-0.42969 0.28125-0.92578 0.14062-0.49609 0.45703-1.3945 0.69922-1.9961 0.24219-0.60547 0.67188-1.5508 0.95312-2.1016s0.85156-1.5156 1.2695-2.1445c0.57422-0.87109 0.98438-1.3711 1.7148-2.1016 0.59375-0.59375 1.25-1.1523 1.7188-1.4648 0.41797-0.27734 1.0664-0.62109 1.4414-0.76563 0.375-0.14453 0.97266-0.30469 1.3281-0.35547 0.47656-0.070313 0.80469-0.070313 1.2344-0.003906 0.32422 0.050781 0.82031 0.20312 1.1055 0.33594 0.28516 0.13672 0.67188 0.38281 0.86328 0.54688 0.1875 0.16406 0.48438 0.51172 0.65625 0.76953 0.17188 0.25781 0.40234 0.72656 0.51172 1.043s0.23828 0.91797 0.28516 1.3359c0.058594 0.53906 0.058594 0.99219-0.007812 1.5508-0.050782 0.43359-0.14844 1.0078-0.21875 1.2773-0.070313 0.26953-0.26953 0.82422-0.44922 1.2344-0.17578 0.41016-0.49609 1.0391-0.71094 1.3945-0.21484 0.35547-0.58203 0.89844-0.8125 1.2109-0.23438 0.3125-0.77734 0.9375-1.2109 1.3906s-1.1602 1.1211-1.6172 1.4883c-0.45703 0.36719-1.1914 0.90234-1.6328 1.1914-0.44141 0.28906-1.3008 0.78516-1.9062 1.1016-0.60547 0.31641-1.4219 0.71094-1.8086 0.875-0.38672 0.16797-1.043 0.42578-1.4531 0.57812-0.59375 0.21875-0.74219 0.30469-0.73047 0.42578 0.007813 0.082031 0.24219 1.082 0.51953 2.2148 0.27734 1.1328 0.55859 2.1953 0.625 2.3555s0.12109 0.40234 0.12109 0.53516c0 0.13281 0.089843 0.60547 0.19922 1.0469 0.10938 0.44141 0.375 1.6055 0.58594 2.5859 0.21094 0.98047 0.40625 1.8398 0.42969 1.9062 0.023438 0.070312 0.30078-0.41406 0.64453-1.1211 0.33203-0.68359 0.90234-1.75 1.2734-2.3672 0.37109-0.61719 0.99609-1.5664 1.3906-2.1055 0.39453-0.53906 1.0391-1.3789 1.4336-1.8633 0.39453-0.48438 1.3164-1.4805 2.0469-2.2148 0.92578-0.92969 1.5508-1.4805 2.0625-1.8164 0.40234-0.26563 1.0703-0.62891 1.4844-0.80469 0.41406-0.17969 1.0703-0.40234 1.4648-0.49609 0.54297-0.12891 0.88672-0.16016 1.4336-0.13281 0.57031 0.03125 0.82812 0.089844 1.2461 0.28516 0.28906 0.13672 0.70312 0.42188 0.92188 0.64453 0.21875 0.21875 0.51172 0.62109 0.64844 0.89453 0.13672 0.27344 0.30469 0.74609 0.36719 1.0469 0.0625 0.30078 0.11719 0.77344 0.11719 1.0469 0 0.27344-0.070313 0.83594-0.15625 1.25-0.085938 0.41406-0.30469 1.1133-0.49219 1.5547-0.18359 0.44141-0.52344 1.1133-0.75 1.4883s-0.65625 0.98438-0.95312 1.3555c-0.29688 0.36719-0.86328 0.97656-1.2578 1.3516-0.39453 0.375-1.1172 0.99609-1.6016 1.3867-0.48438 0.38672-1.2188 0.94531-1.6289 1.2383-0.41016 0.29297-1.25 0.83594-1.8672 1.207-0.61719 0.37109-1.7734 1-2.5703 1.4062-0.79688 0.40234-1.9531 0.94531-2.5664 1.207-0.61328 0.26172-1.25 0.49219-1.4141 0.51562l-0.30078 0.039062 0.34766 2.043c0.25391 1.5 0.40625 2.1641 0.56641 2.5 0.11719 0.25 0.21484 0.54688 0.21484 0.65625s-0.042969 0.31641-0.09375 0.46094c-0.074219 0.21094-0.035156 0.67578 0.21484 2.4961 0.16797 1.2305 0.47266 3.2227 0.67578 4.4258s0.36719 2.4453 0.36719 2.7617c0 0.39063-0.042968 0.63672-0.13672 0.78125-0.074219 0.11328-0.24219 0.26172-0.37109 0.32813-0.12891 0.066406-0.33594 0.11719-0.46484 0.11328-0.12891-0.003907-0.30859-0.035157-0.39844-0.074219zm-2.8359-12.84c-0.078124-0.125-0.32812-0.48828-0.55469-0.80859-0.22266-0.32031-0.55859-0.76562-0.74609-0.99609-0.18359-0.22656-0.59766-0.70703-0.91406-1.0625-0.31641-0.35547-0.95312-0.94922-1.4141-1.3203-0.46094-0.37109-1.1367-0.86719-1.5-1.1055-0.36328-0.23828-1.0352-0.62109-1.4922-0.84766s-1.1406-0.51172-1.5195-0.62891c-0.37891-0.12109-1.0391-0.25781-1.4648-0.3125-0.57031-0.070313-0.96094-0.070313-1.4727-0.003907-0.38281 0.050782-0.91016 0.17188-1.1719 0.26953-0.26172 0.097656-0.62891 0.29688-0.81641 0.44141s-0.41797 0.36719-0.51562 0.49609c-0.10938 0.14844-0.16797 0.34766-0.16406 0.55469 0.003906 0.18359 0.097656 0.47656 0.21875 0.67969 0.11719 0.19531 0.39062 0.53125 0.61328 0.74609 0.21875 0.21094 0.75391 0.625 1.1875 0.91797s1.1055 0.70312 1.4922 0.91406c0.38672 0.21094 1.125 0.55469 1.6367 0.76172 0.51172 0.20703 1.3867 0.51172 1.9492 0.67188 0.5625 0.16016 1.4102 0.36719 1.8906 0.45703 0.48047 0.09375 1.3398 0.21875 1.9062 0.28125 0.57031 0.0625 1.4766 0.11719 2.0117 0.12109l0.97656 0.007813-0.14453-0.22656zm4.0469-6.6133c0.64453-0.29297 1.6641-0.80469 2.2617-1.1328 0.60156-0.32812 1.4922-0.84766 1.9805-1.1602 0.48828-0.30859 1.2539-0.83203 1.6992-1.1641 0.44531-0.33203 1.1328-0.87109 1.5234-1.2031 0.39062-0.33203 0.98047-0.875 1.3086-1.2148 0.32812-0.33594 0.80859-0.89062 1.0586-1.2305 0.25391-0.33984 0.64062-0.99219 0.86328-1.4492s0.46484-1.0703 0.54297-1.3672c0.074219-0.29688 0.14062-0.82031 0.14062-1.1602 0.003906-0.40625-0.046875-0.73828-0.13672-0.94922-0.078125-0.17969-0.20312-0.40234-0.28125-0.48828-0.078125-0.089844-0.29297-0.22656-0.47266-0.3125-0.18359-0.082032-0.44141-0.15234-0.57422-0.15234s-0.48828 0.058594-0.78906 0.13281c-0.30078 0.074219-0.80859 0.25391-1.1289 0.40234-0.32031 0.14844-0.78906 0.39844-1.0352 0.55859-0.25 0.16016-0.70703 0.50391-1.0156 0.76953-0.3125 0.26562-0.97656 0.93359-1.4805 1.4883-0.50391 0.55469-1.1914 1.3477-1.5234 1.7617-0.33594 0.41406-0.88672 1.1445-1.2266 1.6172-0.33984 0.47266-0.82812 1.2109-1.0898 1.6406-0.25781 0.42969-0.71484 1.2695-1.0156 1.8672-0.30078 0.59766-0.70703 1.4922-0.90625 1.9883-0.19922 0.49609-0.38672 1.0469-0.41406 1.2227l-0.050781 0.32422 0.30078-0.125c0.16406-0.070312 0.82812-0.36719 1.4688-0.66016zm-7.0391-8.2461c0.03125-0.03125-0.1875-0.39062-0.48828-0.80078-0.30078-0.41016-0.83594-1.082-1.1914-1.4922-0.35156-0.41016-1.0273-1.1211-1.5039-1.5781-0.47266-0.45703-1.1797-1.0859-1.5664-1.3945-0.38672-0.3125-1.0742-0.8125-1.5234-1.1094-0.44922-0.30078-1.2148-0.74219-1.6992-0.98438s-1.1641-0.53516-1.5078-0.64844c-0.34375-0.11328-0.90625-0.25-1.2461-0.30469-0.33984-0.054687-0.93359-0.074219-1.3203-0.050781-0.38672 0.027344-0.95312 0.125-1.2578 0.21875-0.30469 0.09375-0.73047 0.29297-0.94531 0.44141s-0.46484 0.40234-0.55078 0.55859c-0.11328 0.20703-0.14844 0.40234-0.12891 0.70703 0.015624 0.23047 0.12109 0.60547 0.23047 0.82812 0.10938 0.22656 0.45312 0.66406 0.76562 0.97266s1.0781 0.89844 1.7031 1.3125c0.625 0.41406 1.6953 1.0273 2.3789 1.3633 0.6875 0.33594 1.6562 0.74609 2.1562 0.91406 0.5 0.16406 1.3477 0.40625 1.8789 0.53906 0.53516 0.12891 1.375 0.30078 1.8672 0.37891 0.49219 0.078125 1.2734 0.16406 1.7266 0.19531 0.45703 0.027344 1.1289 0.039063 1.4922 0.019531 0.36328-0.015624 0.69141-0.054687 0.72266-0.085937zm2.6094-7.2031c0.40234-0.16797 1.1992-0.54297 1.7656-0.83594 0.56641-0.28906 1.4453-0.80078 1.9492-1.1367 0.50391-0.33594 1.2852-0.91797 1.7344-1.293s1.0977-1.0039 1.4453-1.3984c0.34375-0.39453 0.82812-1.0195 1.0703-1.3906 0.24219-0.37109 0.59375-0.98828 0.77344-1.3672 0.18359-0.38281 0.41016-1.0039 0.50781-1.3867 0.14062-0.55859 0.16797-0.875 0.14062-1.6172-0.027344-0.73047-0.070313-1.0078-0.21875-1.3359-0.10156-0.22656-0.30859-0.53906-0.45312-0.69531-0.14453-0.15234-0.39453-0.33594-0.55078-0.40234-0.16016-0.070313-0.52344-0.12109-0.83984-0.11719-0.34375 0.003906-0.72656 0.070312-1.0078 0.17578-0.25 0.09375-0.67969 0.30859-0.96094 0.48047-0.28125 0.17187-0.78906 0.54297-1.125 0.82422-0.33984 0.28125-0.87109 0.83594-1.1836 1.2266s-0.74609 0.98047-0.96484 1.3086c-0.21875 0.32813-0.72656 1.25-1.125 2.0508-0.44141 0.87891-0.87891 1.9141-1.1172 2.625-0.21484 0.64453-0.46484 1.5234-0.55859 1.9492-0.089844 0.42578-0.19141 1.1367-0.21875 1.5781-0.027344 0.44141-0.03125 0.85937 0 0.93359 0.027344 0.074219 0.085938 0.13281 0.12891 0.13281 0.042969 0 0.40625-0.13672 0.8125-0.30469zm-7.1562-6.2852c0.40625-0.066406 0.77344-0.15234 0.8125-0.19531 0.042969-0.042969-0.21875-0.47656-0.64453-1.0586-0.39453-0.54297-0.98828-1.3047-1.3203-1.6914-0.33203-0.39062-0.94531-1.0742-1.3672-1.5195s-1.1094-1.0977-1.5234-1.4453c-0.41797-0.35156-1.1211-0.875-1.5625-1.1641-0.44141-0.28906-1.0859-0.65625-1.4258-0.8125s-0.92969-0.35938-1.3125-0.45312c-0.44141-0.10547-0.98047-0.16406-1.4883-0.16406-0.57031 0-0.95703 0.046874-1.3398 0.16797-0.3125 0.097656-0.75 0.32031-1.0391 0.53125-0.39844 0.29297-0.55078 0.47656-0.77344 0.92578-0.24219 0.49219-0.27344 0.63672-0.26562 1.1758 0.007812 0.53125 0.050781 0.69922 0.3125 1.2305 0.20703 0.41797 0.49219 0.80859 0.90234 1.2266 0.32812 0.33594 0.87109 0.78906 1.2109 1.0078 0.33594 0.21484 1.0273 0.58984 1.5352 0.83203 0.50781 0.23828 1.3359 0.57031 1.8398 0.73047 0.50391 0.16016 1.293 0.37109 1.75 0.46484 0.46094 0.09375 1.1484 0.20312 1.5312 0.24219 0.38281 0.039062 1.3125 0.078125 2.0664 0.082031 0.84766 0.007813 1.6484-0.035156 2.1055-0.10938zm4.0742-9.1445c0.54688-0.29687 1.2383-0.71094 1.5352-0.92187 0.29688-0.21094 0.82031-0.62109 1.1602-0.91406 0.34375-0.28906 0.82422-0.73828 1.0664-0.99609 0.24609-0.25781 0.64062-0.69141 0.88281-0.96484 0.23828-0.27344 0.64844-0.79297 0.90625-1.1523s0.63281-0.95703 0.83203-1.3281c0.19922-0.37109 0.47656-0.95312 0.61328-1.2969 0.13672-0.34375 0.32422-0.98438 0.42188-1.4297 0.097656-0.44531 0.17578-1.0078 0.17578-1.2539s-0.039063-0.64453-0.082031-0.88672c-0.046876-0.24219-0.17188-0.62891-0.27734-0.86328-0.10547-0.23047-0.3125-0.54297-0.46094-0.6875-0.14844-0.14844-0.41406-0.3125-0.59375-0.36328-0.25391-0.078125-0.42969-0.074219-0.78516 0.003906-0.25 0.054687-0.70703 0.22656-1.0156 0.38281-0.33984 0.17187-0.76953 0.48828-1.0977 0.8125-0.29688 0.29297-0.75781 0.83594-1.0273 1.207-0.26953 0.37109-0.74609 1.1289-1.0664 1.6836-0.31641 0.55469-0.72266 1.332-0.90234 1.7305-0.17969 0.39844-0.45703 1.0898-0.62109 1.5352-0.16016 0.44922-0.42188 1.3008-0.57812 1.8984-0.15625 0.59375-0.33984 1.3945-0.41016 1.7773-0.070312 0.38281-0.12891 1.0195-0.12891 1.4219 0 0.39844 0.023437 0.84375 0.050781 0.98828 0.042969 0.21875 0.082031 0.25391 0.22656 0.21094 0.097656-0.027343 0.625-0.29297 1.1719-0.58984zm-7.7227-6.6602c0.26953-0.042968 0.50781-0.097656 0.52734-0.12109 0.023438-0.023437-0.13672-0.34375-0.35547-0.71484-0.22266-0.375-0.65625-1.0078-0.96484-1.4102-0.3125-0.40234-0.82031-0.98828-1.1289-1.3008-0.30859-0.31641-0.85938-0.80859-1.2266-1.1016-0.36328-0.28906-1.0547-0.78516-1.5352-1.1016-0.47656-0.32031-1.2617-0.77344-1.7422-1.0156-0.47656-0.23828-1.1836-0.53516-1.5625-0.65625-0.40234-0.125-0.99609-0.23828-1.4102-0.26562-0.51953-0.035156-0.875-0.011718-1.2969 0.089844-0.32031 0.074219-0.78516 0.23047-1.0352 0.34375s-0.54297 0.28906-0.65234 0.39062c-0.10547 0.10156-0.24609 0.28125-0.3125 0.40625-0.0625 0.125-0.11719 0.37891-0.11719 0.57031 0 0.23047 0.089844 0.51562 0.26953 0.85156 0.14844 0.27734 0.51172 0.74609 0.80469 1.0352 0.29297 0.28906 0.74219 0.6875 0.99609 0.87891 0.25391 0.19141 0.8125 0.58984 1.2461 0.87891 0.43359 0.28906 1.1797 0.72266 1.6602 0.96094 0.48047 0.23828 1.1719 0.53125 1.5352 0.65234s1.168 0.30859 1.7852 0.42188c0.61719 0.10938 1.25 0.21484 1.4102 0.23047s0.8125 0.035156 1.4531 0.042968c0.64062 0.007813 1.3828-0.023437 1.6484-0.066406zm2.6211-8.1406c0.53516-0.32422 1.3594-0.87891 1.8359-1.2344 0.47656-0.35547 1.2383-1.0312 1.6953-1.5078 0.45703-0.47656 1.0469-1.1914 1.3125-1.5938s0.66406-1.0898 0.88281-1.5312 0.49609-1.0859 0.61328-1.4297 0.26953-0.95703 0.33984-1.3594c0.070312-0.40234 0.12891-0.90625 0.125-1.1172 0-0.21094-0.054688-0.63672-0.12109-0.94531-0.066406-0.30859-0.22266-0.75-0.34766-0.98438-0.125-0.23047-0.38672-0.55859-0.57812-0.73047-0.19141-0.16797-0.49609-0.35156-0.67578-0.40625-0.17969-0.054688-0.42578-0.097657-0.54688-0.097657-0.12109 0-0.42187 0.070313-0.66797 0.15625-0.24609 0.085938-0.62109 0.27734-0.83594 0.42188-0.21094 0.14453-0.59375 0.47656-0.84766 0.73438-0.25391 0.25781-0.63672 0.73047-0.85156 1.0508-0.21484 0.32031-0.54297 0.85938-0.72656 1.2031-0.1875 0.34375-0.50781 1.0273-0.71875 1.5195-0.21094 0.49219-0.49219 1.2695-0.625 1.7266-0.13672 0.45312-0.30078 1.1523-0.37109 1.5508-0.070312 0.39844-0.16406 1.2305-0.21094 1.8555-0.058594 0.75781-0.058594 1.4648-0.003906 2.1367 0.042968 0.55469 0.10547 1.043 0.13281 1.0898s0.089844 0.082031 0.14062 0.082031 0.52734-0.26562 1.0586-0.58984zm-6.8555-9.8008c0.10937-0.078125 0.19531-0.45703 0.36328-1.5547 0.1875-1.2461 0.21875-1.7148 0.21875-3.3164 0-1.5312-0.03125-2.0391-0.17578-2.8203-0.10156-0.53125-0.28125-1.2812-0.40234-1.668-0.11719-0.38672-0.40234-1.0781-0.62891-1.5352-0.22266-0.45703-0.64844-1.1523-0.94141-1.5391-0.29297-0.39062-0.76953-0.92969-1.0586-1.2031-0.28906-0.26953-0.71484-0.58984-0.94531-0.71484s-0.65625-0.28906-0.94531-0.36328c-0.32812-0.082031-0.64844-0.11328-0.86328-0.078125-0.1875 0.03125-0.49219 0.14453-0.67969 0.25391-0.1875 0.10937-0.43359 0.32031-0.54688 0.47266s-0.28906 0.43359-0.38672 0.625-0.25391 0.66016-0.34375 1.0352c-0.11328 0.47266-0.16406 0.97656-0.16406 1.6289 0 0.62109 0.058593 1.2227 0.16797 1.7617 0.09375 0.45312 0.28516 1.1406 0.42578 1.5352 0.14062 0.39062 0.4375 1.0703 0.66016 1.5039 0.22266 0.4375 0.64453 1.1523 0.9375 1.5898 0.29297 0.4375 0.75781 1.0586 1.0312 1.3789 0.27344 0.32031 0.86328 0.90625 1.3125 1.3008 0.44922 0.39453 0.97656 0.83594 1.1719 0.97656 0.19531 0.14062 0.58594 0.38672 0.87109 0.54297 0.28516 0.16016 0.57422 0.28906 0.64453 0.28906 0.070312 0 0.19531-0.046874 0.27344-0.10156z"/>
</svg>
