<?xml version="1.0" encoding="UTF-8"?>
<svg version="1.1" viewBox="4 4 92 92" width="100%" height="100%" xmlns="http://www.w3.org/2000/svg">
 <path d="m29.32 18.953c-29.469 15.234-23.219 45.586-22.113 50.047-2.0898 5.1836-3.707 10.547-4.8281 16.023-0.089844 0.40625-0.011718 0.82812 0.21094 1.1797 0.22656 0.34766 0.57812 0.59375 0.98438 0.67969 0.10938 0.027344 0.22266 0.039063 0.33203 0.039063 0.73438 0 1.3711-0.51172 1.5273-1.2305 1.0195-4.918 2.4258-9.7461 4.207-14.441 7.8711 4.1367 16.602 6.3672 25.492 6.5117 28.836 0 45.66-25.938 45.875-26.273 10.914-17.266 15.246-20.914 15.277-20.938h-0.003906c0.375-0.29688 0.59375-0.75 0.59375-1.2266 0-0.47656-0.21875-0.92969-0.59375-1.2266-0.33594-0.26172-33.867-26.25-66.961-9.1445zm49.043 30.871c-0.25391 0.40234-25.625 39.508-67.344 18.645 3.3164-5.3359 7.3516-10.184 12-14.406 2.6562 2.9062 9.8438 9.0273 23.969 10.188h0.12891c0.86328 0.035156 1.5938-0.63281 1.6289-1.4961 0.035156-0.86328-0.63672-1.5938-1.5-1.6289-12.953-1.0625-19.562-6.6797-21.875-9.1562v0.003906c4.293-3.668 8.9531-6.8867 13.906-9.5977 2.7344 2.0234 11.387 7.4688 27.223 9.1641 0.054688 0.007813 0.11328 0.007813 0.16797 0.007813 0.82812-0.003906 1.5117-0.65234 1.5547-1.4805 0.042969-0.82422-0.56641-1.543-1.3906-1.6328-13.031-1.3984-20.961-5.5-24.41-7.707 5.4023-2.668 11.055-4.793 16.875-6.3438 5.2617 2.4492 10.836 4.1562 16.562 5.0742 0.070313 0.011719 0.14062 0.015625 0.21094 0.015625 0.82031-0.003906 1.5-0.64062 1.5547-1.4609 0.050781-0.82031-0.53906-1.5391-1.3516-1.6523-4.0625-0.62109-8.043-1.7031-11.859-3.2227 6.4492-1.3633 13.008-2.1523 19.598-2.3555 0.41406-0.015625 0.80469-0.19141 1.0859-0.49609 0.28516-0.30078 0.43359-0.70703 0.42188-1.1211-0.003906-0.41406-0.17969-0.8125-0.48438-1.0977-0.30469-0.28516-0.71094-0.43359-1.1289-0.41016-7.3828 0.23047-14.723 1.1836-21.922 2.8438 0.96875-2.5039 2.1992-4.8984 3.6797-7.1406 0.26172-0.32812 0.38281-0.75 0.33203-1.168-0.054688-0.41797-0.27344-0.80078-0.60938-1.0547-0.33594-0.25391-0.75781-0.36328-1.1758-0.30078-0.41797 0.066406-0.79297 0.29297-1.0391 0.63672-2.0156 3.1289-3.668 6.4727-4.9297 9.9727-5.832 1.5781-11.496 3.707-16.918 6.3672 0.69531-3.9062 2.3516-11.02 5.75-15.809h-0.003907c0.5-0.70312 0.33594-1.6797-0.37109-2.1797-0.70312-0.5-1.6797-0.33203-2.1758 0.37109-4.6797 6.6016-6.2891 16.711-6.6523 19.418-4.7461 2.6016-9.2383 5.6445-13.414 9.0898-0.20312-5.8281 0.75-11.637 2.7969-17.094 0.32031-0.80078-0.066406-1.7109-0.86719-2.0352-0.79688-0.32031-1.7109 0.066406-2.0312 0.86719-2.5 6.6562-3.4883 13.781-2.8906 20.867-4.4961 4.043-8.4844 8.6133-11.887 13.613-1.3711-8.832-2.1875-31.113 21.176-43.191 27.52-14.219 55.582 3.2109 62.156 7.7812-2.1055 2.2773-6.6602 7.832-14.547 20.312z"/>
</svg>
