<?xml version="1.0" encoding="UTF-8"?>
<svg version="1.1" viewBox="0 0 100 100" width="100%" height="100%" xmlns="http://www.w3.org/2000/svg">
 <path d="m22.316 16.777v-4.6992c-4.3633-3.6914 0-9.3945 0.33594-12.082 0.33594 2.6836 5.0352 10.066 0.33594 12.418 0 1.3438 0 2.6836 0.33594 4.0273l-0.67188 0.67188-0.33594-0.33594z"/>
 <path d="m23.656 29.195c-0.33594-2.3477-0.67188-5.0352-1.0078-7.3828 0 0 0.33594-0.33594 0.33594-0.33594 0.33594 0 0.67188 0.33594 0.67188 0.33594 0.33594 2.3477 0.67188 4.6992 1.3438 7.0469-0.33594 0-0.33594 0.33594-0.67188 0.67188 0 0-0.33594-0.33594-0.67188-0.33594z"/>
 <path d="m27.012 41.273c-0.67188-2.0117-1.3438-4.0273-2.0117-5.7031 0.33594-0.33594 0.67188-0.67187 1.0078-1.0078 0 0.33594 0.33594 0.33594 0.67188 0.33594 0.67187 1.6797 1.3438 3.6914 2.0117 5.3672-0.33594 0.67188-0.33594 1.0078-0.67188 1.3438-0.33594 0-0.67188-0.33594-1.0078-0.33594z"/>
 <path d="m33.055 54.027c-1.3438-2.0117-2.3477-3.6914-3.0195-5.7031 0-0.33594 0.33594-0.67188 0.67188-1.0078 0.33594 0.33594 1.0078 0.33594 1.3438 0.33594 1.0078 1.6797 1.6797 3.3555 2.6836 5.0352v0.33594c-0.33594 0.67187-0.33594 1.0078-0.33594 1.3438-0.33594 0-1.0078-0.33594-1.3438-0.33594z"/>
 <path d="m42.113 66.105c-1.3438-1.3438-2.6836-3.0195-4.0273-4.6992 0-0.33594 0.33594-0.67188 0.67187-1.0078 0.33594 0 0.67188 0 1.3438-0.33594 1.0078 1.6797 2.0117 3.0195 3.3555 4.3633v0.33594 1.3438h-1.3438z"/>
 <path d="m55.203 77.852c-2.6836-2.0117-5.0352-4.0273-7.7188-6.0391 0.33594-0.33594 0.33594-0.67188 0.67188-1.3438 0.33594 0 0.67188 0 1.0078-0.33594 2.3477 2.0117 4.6992 4.0273 7.0469 5.7031v0.33594c0 0.33594 0.33594 0.67188 0.33594 1.3438-0.33594 0-1.0078 0-1.3438 0.33594z"/>
 <path d="m71.98 86.914c-0.67188-0.33594-1.0078-0.67187-1.6797-1.0078-2.6836-1.0078-5.3672-2.3477-8.0547-3.6914v-1.3438c0.67188 0 1.0078-0.33594 1.3438-0.67188 2.3477 1.3438 5.0352 2.6836 7.3828 3.6914 0.67188 0 1.0078 0.33594 1.3438 0.33594l0.33594 0.33594c0 0.67188 0.33594 1.0078 0.67188 1.6797-0.33594 0-0.67188 0.33594-1.3438 0.67187z"/>
 <path d="m87.75 90.941c-2.6836-0.33594-5.3672-1.0078-8.0547-1.6797 0-0.33594-0.33594-1.0078-0.33594-1.3438 0.33594-0.33594 0.67188-0.67188 1.0078-1.0078 2.3477 0.67188 4.6992 1.3438 7.3828 1.6797 0.33594 0.33594 0.67188 1.0078 1.3438 1.3438-0.67188 0.33594-1.0078 0.67188-1.3438 1.0078z"/>
 <path d="m34.395 14.094c-2.3477 1.6797-5.7031 10.402-11.41 6.375-4.6992 4.6992-9.3945-3.0195-12.082-4.3633 2.6836 0.67188 10.738-2.3477 12.082 3.6914 0.33594-6.0391 8.7266-4.6992 11.41-5.7031z" fill-rule="evenodd"/>
 <path d="m75.336 70.805c1.3438 3.6914 9.7305 11.746 2.3477 16.777 3.6914 8.0547-8.0547 10.066-11.074 12.418 2.0117-3.0195 2.3477-14.094 10.402-12.75-7.3828-3.3555-1.6797-12.75-1.6797-16.441z" fill-rule="evenodd"/>
 <path d="m62.582 64.43c0 3.6914 6.0391 12.75-2.0117 15.438 1.0078 8.3906-9.7305 7.0469-13.086 8.7266 2.6836-2.3477 5.7031-12.082 12.418-9.3945-5.7031-4.3633 1.6797-11.41 2.6836-14.766z" fill-rule="evenodd"/>
 <path d="m51.844 54.699c-0.67188 3.3555 3.0195 13.758-5.0352 14.766-1.0078 8.0547-11.074 4.6992-14.766 5.7031 3.0195-1.6797 8.0547-10.738 14.094-6.375-4.6992-5.7031 4.3633-11.074 5.7031-14.094z" fill-rule="evenodd"/>
 <path d="m35.402 24.832c-2.0117 2.3477-3.6914 11.41-9.7305 8.7266-4.0273 5.3672-10.402-1.3438-13.086-2.3477 3.0195 0 10.402-4.3633 12.75 1.3438-1.0078-6.0391 7.7188-6.0391 10.066-7.7188z" fill-rule="evenodd"/>
 <path d="m45.133 44.965c-1.3438 3.3555 0.67188 14.094-7.7188 13.758-2.3477 8.0547-12.082 2.6836-15.438 2.6836 3.3555-1.0078 10.066-9.0586 15.102-3.3555-4.0273-6.7109 6.0391-10.402 8.0547-13.086z" fill-rule="evenodd"/>
 <path d="m40.438 34.227c-2.0117 3.0195-2.3477 14.094-10.402 11.746-4.0273 7.3828-12.418 0.33594-15.773-0.33594 3.3555-0.67188 11.746-7.0469 15.438-0.33594-2.3477-7.3828 8.0547-8.7266 10.738-11.074z" fill-rule="evenodd"/>
</svg>
