<?xml version="1.0" encoding="UTF-8"?>
<svg version="1.1" viewBox="3 5 94 94" width="100%" height="100%" xmlns="http://www.w3.org/2000/svg">
 <path d="m37.645 17.738c2.6172-1.5234 6.2031-2.5703 11.152-2.5703h0.019531 0.019532c4.9531 0 8.5391 1.0469 11.156 2.5703 1.3945-3.7578 0.074218-6.5625-0.23047-7.3398-0.58594-1.4453-1.4375-2.0234-1.4375-2.0234l0.13672 0.09375c-1.9297-1.5742-4.9258-2.9336-9.625-2.9336h-0.019532-0.019531c-4.7109 0-7.7109 1.3672-9.6406 2.9453l0.15234-0.10547s-0.85156 0.57812-1.4375 2.0234c-0.30078 0.78125-1.6172 3.582-0.22656 7.3398z"/>
 <path d="m40.23 25.672c-1.2344-2.4609-2.3203-4.9844-3.1133-7.6172-1.5781-4.1133 0.26953-7.7461 0.26953-7.7461-0.63672 0.83594-1.0273 1.6094-1.2734 2.1406-0.76562 1.6562-5.082 10.246-5.5195 15.293-0.058594 0.65625 0.070312 4.3906 0.24609 5.6289 0.35547 2.5195 1.0938 4.7539 1.8164 6.2461 6.0898 12.621 32.363 58.234 32.363 58.234l3.9766-6.8711 8.2695-0.46094c-0.003906 0-35.758-62.305-37.035-64.848z"/>
 <path d="m60.535 18.055c-0.79297 2.6328-1.8789 5.1562-3.1133 7.6172-0.375 0.74609-3.7266 6.6523-8.2695 14.613 2.4375 4.2695 5.207 9.1172 8.043 14.074 3.3984-6.1875 6.2539-11.535 7.8047-14.746 0.78516-1.625 1.5898-4.1211 1.9023-6.9141 0.11719-1.0352 0.21484-4.6875 0.089844-5.5977-0.71094-5.1016-4.7109-13.066-5.4453-14.656-0.24609-0.53125-0.64062-1.3047-1.2734-2.1406-0.007813 0 1.8359 3.6367 0.26172 7.75z"/>
 <path d="m20.391 90.52 8.2695 0.46094 3.9766 6.8711s7.7891-13.523 15.867-27.879c-2.7578-4.8984-5.5391-9.8828-8.0547-14.453-9.7461 17.031-20.059 35-20.059 35z"/>
</svg>
