<?xml version="1.0" encoding="UTF-8"?>
<svg version="1.1" viewBox="0 0 100 100" width="100%" height="100%" xmlns="http://www.w3.org/2000/svg">
 <path d="m50 12.562c6.293 0 9.9922 3.25 11.527 5 1.8906-3.7031 2.9492-6.5508 2.9492-8.2773 0-2.5234-0.65625-4.4531-2.0039-5.8867-0.074218-0.078126-0.15234-0.15625-0.23047-0.23047-2.2031-2.1328-6.207-3.168-12.242-3.168s-10.039 1.0352-12.242 3.1641c-0.11328 0.11328-0.22266 0.23047-0.33594 0.34766-1.2773 1.418-1.8984 3.3125-1.8984 5.7695 0 1.3438 0.67187 3.8047 2.9531 8.2734 1.5352-1.7461 5.2344-4.9922 11.523-4.9922z"/>
 <path d="m40.195 50.254c3.1484-4.3359 6.1094-8.5195 8.8086-12.465-10.039-14.75-15.129-24.344-15.129-28.508 0-0.24219 0.007812-0.47656 0.019531-0.71094-1.2969 2.5-2.3008 5.3711-2.9023 8.4141-0.91406 4.625-1.3438 11.867 1.8086 20.117 1.082 2.832 3.5703 7.2539 7.3945 13.152z"/>
 <path d="m69.012 16.984c-0.60156-3.043-1.6016-5.918-2.9023-8.418 0.011719 0.23438 0.015625 0.47266 0.015625 0.71484 0 4.5586-6.0703 15.574-18.047 32.738-8.8164 12.641-20.855 28.594-33.082 43.836l8.2383 14.145c5.4609-6.9297 38.918-49.688 43.965-62.898 3.1523-8.25 2.7266-15.492 1.8125-20.117z"/>
 <path d="m59.887 53.152c-2.668 4.0312-5.707 8.3984-8.8633 12.805 10.695 14.863 22.668 30.145 25.742 34.047l8.2383-14.145c-8.7422-10.906-17.613-22.457-25.117-32.707z"/>
</svg>
