<?xml version="1.0" encoding="UTF-8"?>
<svg version="1.1" viewBox="4 4 92 92" width="100%" height="100%" xmlns="http://www.w3.org/2000/svg">
 <path d="m94.305 72.035c-0.35156-0.63672-1.0234-1.0352-1.75-1.0352h-6.7773l-33.09-52.281v-9.7188c0-0.89062-0.58984-1.6719-1.4414-1.9219-0.85547-0.25-1.7695 0.10156-2.2461 0.85156l-39.91 63.07h-1.668c-0.69922 0-1.3477 0.36328-1.7109 0.96484-0.64063 1.0586-3.0977 6.8711 10.84 18 0.20703 0.25391 0.44922 0.46484 0.73828 0.58594 0.99609 0.76953 2.0039 1.4727 3.0664 2.1406 0.31641 0.20312 0.6875 0.30859 1.0664 0.30859h57.133c0.37891 0 0.74609-0.10547 1.0664-0.30859 0.53125-0.33594 1.0664-0.69531 1.6562-1.1094 0.58594-0.11328 1.0703-0.48047 1.3477-0.98438 14.758-10.984 12.332-17.375 11.68-18.562zm-13.266-1.0352h-28.352v-44.801zm-32.352-55.098v0.097656c-0.10938 0.25-0.1875-0.28516-0.1875 0v55h-34.68zm42.094 59.098c-0.26172 1.9219-2.043 6.25-11.348 12.98-0.53516 0.38672-1.0117 0.71875-1.4688 1.0195h-55.957c-0.90625-0.59375-1.7695-1.2148-2.6367-1.8984-7.6172-6.0117-9.8125-10.117-10.18-12.102"/>
</svg>
