<?xml version="1.0" encoding="UTF-8"?>
<svg version="1.1" viewBox="10 10 80 80" width="100%" height="100%" xmlns="http://www.w3.org/2000/svg">
 <path d="m90.199 50v0.30078c-10.398 0-20.199 1-27.602 2.8008h-0.10156c-4.5 1.1016-8 4.6016-9.1016 9.1016v0.10156c-1.8984 7.3984-2.8984 17.199-2.8008 27.602h-0.5c0-10.398-1-20.199-2.8008-27.602v-0.10156c-1.1016-4.5-4.6992-8-9.1016-9.1016h-0.10156c-7.3984-1.8984-17.199-2.8984-27.602-2.8008v-0.19922l0.011719-0.10156v-0.19922c10.398 0 20.199-1 27.602-2.8008h0.10156c4.5-1.1992 8-4.6992 9.1016-9.1016v-0.10156c1.8984-7.3984 2.8984-17.199 2.8008-27.602h0.5c0 10.398 1 20.199 2.8008 27.602v0.10156c1.1016 4.5 4.6016 8 9.1016 9.1016h0.10156c7.3984 1.8984 17.199 2.8984 27.602 2.8008z"/>
</svg>
