<?xml version="1.0" encoding="UTF-8"?>
<svg version="1.1" viewBox="20 8 76 76" width="100%" height="100%" xmlns="http://www.w3.org/2000/svg">
 <path d="m95 53.5v0.19922c-6.5 0-12.5 0.60156-17.102 1.8008h-0.10156c-2.8008 0.69922-4.8984 2.8984-5.6992 5.6016v0.10156c-1.1992 4.6016-1.8008 10.602-1.8008 17.102h-0.20312c0-6.5-0.60156-12.5-1.8008-17.102v-0.10156c-0.69922-2.8008-2.8984-4.8984-5.6992-5.6992h-0.10156c-4.4922-1.2031-10.492-1.8008-16.992-1.8008v-0.20312c6.5 0 12.5-0.60156 17.102-1.8008h0.10156c2.8008-0.69922 4.8984-2.8984 5.6016-5.6992v-0.10156c1.1992-4.6016 1.8008-10.602 1.8008-17.102h0.20312c0 6.5 0.60156 12.5 1.8008 17.102v0.10156c0.69922 2.8008 2.8984 4.8984 5.6016 5.6992h0.10156c4.6016 1.1992 10.602 1.8008 17.102 1.8008z"/>
 <path d="m57.5 28.699v0.10156c-4.8984 0-9.3984 0.5-12.801 1.3008-2.1016 0.5-3.6992 2.1992-4.3008 4.1992v0.10156c-0.89844 3.3984-1.3008 8-1.3008 12.801h-0.20312c0-4.8984-0.5-9.3984-1.3008-12.801v-0.10156c-0.5-2.1016-2.1992-3.6992-4.1992-4.1992h-0.10156c-3.3984-0.89844-8-1.3008-12.801-1.3008v-0.20312c4.8984 0 9.3984-0.5 12.801-1.3008h0.10156c2.1016-0.5 3.6992-2.1992 4.1992-4.3008 0.89844-3.3984 1.3008-8 1.3008-12.801h0.20312c0 4.8984 0.5 9.3984 1.3008 12.801v0.10156c0.5 2.1016 2.1992 3.6992 4.1992 4.1992h0.10156c3.4023 0.90234 7.9023 1.4023 12.801 1.4023z"/>
 <path d="m39.102 68.602c-2.3984 0.10156-4.6992 0.30078-6.3984 0.69922-1 0.30078-1.8008 1.1016-2.1016 2.1016-0.39844 1.6992-0.69922 4-0.69922 6.3984 0-2.3984-0.19922-4.6992-0.69922-6.3984-0.30078-1-1.1016-1.8008-2.1016-2.1016-1.6992-0.39844-4-0.69922-6.3984-0.69922 2.3984 0 4.6992-0.19922 6.3984-0.69922 1-0.30078 1.8008-1.1016 2.1016-2.1016 0.39844-1.6992 0.69922-4 0.69922-6.3984 0 2.3984 0.19922 4.6992 0.69922 6.3984 0.30078 1 1.1016 1.8008 2.1016 2.1016 1.6953 0.39844 3.9961 0.59766 6.3984 0.69922z"/>
</svg>
