<?xml version="1.0" encoding="UTF-8"?>
<svg version="1.1" viewBox="11 12 78 78" width="100%" height="100%" xmlns="http://www.w3.org/2000/svg">
 <path d="m35 34.898c2.3008 1.8008 5.1992 2.1992 7.3984 2.1992 1.1016 0 2-0.10156 2.5-0.19922l5.6016 5.1016v10.5l-2.1016-2c-0.10156-1.5-0.80078-6.5-4.3008-9.1992-4.1016-3.1992-10.199-2-10.398-1.8984-0.5 0.10156-0.80078 0.5-0.80078 1 0 0.30078 0.30078 6.5 4.3008 9.6992 2.3008 1.8008 5.1992 2.1992 7.3984 2.1992 1.1016 0 2-0.10156 2.5-0.19922l3.3984 3.1992v33.398c0 0.60156 0.39844 1 1 1 0.60156 0 1-0.39844 1-1l0.003906-33.301 3.3984-3.3008c0.5 0.10156 1.3984 0.19922 2.5 0.19922 2.1992 0 5.1016-0.39844 7.3984-2.1992 4.1016-3.1992 4.3008-9.3984 4.3008-9.6992 0-0.5-0.30078-0.89844-0.80078-1-0.30078-0.10156-6.3984-1.3008-10.398 1.8984-3.5 2.8008-4.1992 7.8008-4.3008 9.1992l-2.1016 2 0.003906-10.496 5.8984-5.1016c0.5 0.10156 1.3984 0.19922 2.5 0.19922 2.1992 0 5.1016-0.39844 7.3984-2.1992 4.1016-3.1992 4.3008-9.3984 4.3008-9.6992 0-0.5-0.30078-0.89844-0.80078-1-0.30078-0.10156-6.3984-1.3008-10.398 1.8984-3.5 2.6992-4.1992 7.6992-4.3008 9.1992l-4.6016 4v-7.8984c1.1992-1.1016 4.6016-4.6016 4.6016-9 0-5.1992-4.6992-9.1992-4.8984-9.3984-0.39844-0.30078-0.89844-0.30078-1.3008 0-0.19922 0.19922-4.8984 4.1992-4.8984 9.3984 0 4.3984 3.5 8.1016 4.6016 9.1016v7.8008l-4.3008-3.8984c-0.10156-1.5-0.80078-6.5-4.3008-9.1992-4.1016-3.1992-10.199-2-10.398-1.8984-0.5 0.10156-0.80078 0.5-0.80078 1-0.10156 0.19531 0.19922 6.3945 4.1992 9.5938zm3.3984 13.602c-2.5-2-3.3008-5.6016-3.5-7.3008 1.6992-0.19922 5.3984-0.30078 7.8984 1.6992s3.3008 5.6016 3.5 7.3008c-1.5977 0.10156-5.2969 0.30078-7.8984-1.6992zm21.801-5.6016c2.5-2 6.1992-1.8008 7.8984-1.6992-0.19922 1.6992-1 5.3008-3.5 7.3008s-6.1992 1.8008-7.8984 1.6992c0.19922-1.6992 0.90234-5.3008 3.5-7.3008zm2.4023-15.199c2.5-2 6.1992-1.8008 7.8984-1.6992-0.19922 1.6992-1 5.3008-3.5 7.3008s-6.1992 1.8008-7.8984 1.6992c0.29688-1.6992 1-5.3008 3.5-7.3008zm-14.703-5.1992c0-3.1992 2.3984-6 3.6016-7.1992 1.1992 1.1992 3.6016 4 3.5 7.1992 0 3.1992-2.3984 6-3.6016 7.1992-1.0977-1.1992-3.5-4-3.5-7.1992zm-7.1992 5.1992c2.5 2 3.3008 5.6016 3.5 7.3008-1.6992 0.19922-5.3984 0.30078-7.8984-1.6992s-3.3008-5.6016-3.5-7.3008c1.6992-0.10156 5.3984-0.30078 7.8984 1.6992z"/>
</svg>
