<?xml version="1.0" encoding="UTF-8"?>
<svg version="1.1" viewBox="16 16 68 68" width="100%" height="100%" xmlns="http://www.w3.org/2000/svg">
 <path d="m70.738 46.801c-6.832 3.9336-15.559 1.5938-19.508-5.2305v-5.9609c1.7266 2.2617 4.1328 3.9062 6.8711 4.6914 3.3906 0.875 7 0.16406 9.8086-1.9297l-1.3984-2c-2.2266 1.707-5.1094 2.3086-7.832 1.6289-3.3594-1.0352-6.082-3.5078-7.4414-6.75v-7.3984c2.6289 3.9805 7.082 6.3789 11.852 6.3867v-2.3984c-6.5508 0.011718-11.875-5.2891-11.891-11.84h-2.3984c-0.015625 6.5391-5.3203 11.836-11.859 11.84v2.3984c4.7734-0.003906 9.2266-2.4062 11.859-6.3867v7.3828-0.003906c-1.3594 3.2578-4.1016 5.7383-7.4805 6.7695-2.7031 0.6875-5.5703 0.11328-7.8008-1.5586l-1.3984 2c2 1.4453 4.4062 2.2305 6.8789 2.2383 0.97656-0.003907 1.9453-0.12891 2.8906-0.37891 2.7344-0.78516 5.1445-2.4297 6.8711-4.6914v5.9609c-3.9492 6.8203-12.672 9.1602-19.5 5.2305l-1.1992 2.0781h-0.003906c3.3164 1.9062 7.1836 2.6172 10.957 2.0156 3.7734-0.60547 7.2266-2.4844 9.7852-5.3242v38.43h2.3984v-38.422c2.5586 2.8438 6.0117 4.7227 9.7852 5.3242 3.7773 0.59766 7.6445-0.11328 10.957-2.0234z"/>
</svg>
