<?xml version="1.0" encoding="UTF-8"?>
<svg version="1.1" viewBox="8 8 84 84" width="100%" height="100%" xmlns="http://www.w3.org/2000/svg">
 <path d="m45.5 29.461c0-2.4883 2.0117-4.5 4.5-4.5s4.5 2.0117 4.5 4.5c0 2.4805-2.0117 4.5-4.5 4.5s-4.5-2.0195-4.5-4.5z" fill="none" stroke="#000" stroke-miterlimit="10"/>
 <path d="m54.5 70.539c0 2.4883-2.0117 4.5-4.5 4.5s-4.5-2.0117-4.5-4.5c0-2.4805 2.0117-4.5 4.5-4.5s4.5 2.0195 4.5 4.5z" fill="none" stroke="#000" stroke-miterlimit="10"/>
 <path d="m50 8.9219c-22.691 0-41.078 18.387-41.078 41.078s18.387 41.078 41.078 41.078c-11.34 0-20.539-9.1914-20.539-20.539 0-11.34 9.1992-20.539 20.539-20.539s20.539-9.1992 20.539-20.539c0-11.352-9.1992-20.539-20.539-20.539zm0 25.039c-2.4883 0-4.5-2.0195-4.5-4.5 0-2.4883 2.0117-4.5 4.5-4.5s4.5 2.0117 4.5 4.5c0 2.4805-2.0117 4.5-4.5 4.5z" fill="none" stroke="#000" stroke-miterlimit="10"/>
 <path d="m54.5 29.461c0 2.4805-2.0117 4.5-4.5 4.5s-4.5-2.0195-4.5-4.5c0-2.4883 2.0117-4.5 4.5-4.5s4.5 2.0078 4.5 4.5z" fill="none" stroke="#000" stroke-miterlimit="10"/>
 <path d="m50 8.9219c11.34 0 20.539 9.1914 20.539 20.539 0 11.34-9.1992 20.539-20.539 20.539s-20.539 9.1992-20.539 20.539c0 11.352 9.1992 20.539 20.539 20.539 22.691 0 41.078-18.391 41.078-41.078 0-22.691-18.387-41.078-41.078-41.078zm-4.5 61.617c0-2.4805 2.0117-4.5 4.5-4.5s4.5 2.0195 4.5 4.5c0 2.4883-2.0117 4.5-4.5 4.5s-4.5-2.0078-4.5-4.5z" stroke="#000" stroke-miterlimit="10"/>
 <path d="m54.5 70.539c0 2.4883-2.0117 4.5-4.5 4.5s-4.5-2.0117-4.5-4.5c0-2.4805 2.0117-4.5 4.5-4.5s4.5 2.0195 4.5 4.5z" fill="none" stroke="#000" stroke-miterlimit="10"/>
 <path d="m54.5 29.461c0 2.4805-2.0117 4.5-4.5 4.5s-4.5-2.0195-4.5-4.5c0-2.4883 2.0117-4.5 4.5-4.5s4.5 2.0078 4.5 4.5z"/>
</svg>
