<svg width="24" height="16" viewBox="0 0 24 16" fill="none" xmlns="http://www.w3.org/2000/svg">
<g id="amex-b933c9009eeaf8cfd07e789c549b8c57.svg" clip-path="url(#clip0_7047_53543)">
<path id="Vector" d="M22 0H2C0.89543 0 0 0.89543 0 2V14C0 15.1046 0.89543 16 2 16H22C23.1046 16 24 15.1046 24 14V2C24 0.89543 23.1046 0 22 0Z" fill="#016FD0"/>
<path id="Vector_2" fill-rule="evenodd" clip-rule="evenodd" d="M13.7639 13.3967V7.69531L23.9115 7.70442V9.27931L22.7386 10.5327L23.9115 11.7976V13.4059H22.0389L21.0437 12.3077L20.0556 13.41L13.7639 13.3967Z" fill="#FFFFFE"/>
<path id="Vector_3" fill-rule="evenodd" clip-rule="evenodd" d="M14.4419 12.7692V8.32031H18.2142V9.3452H15.6633V10.0409H18.1533V11.0487H15.6633V11.732H18.2142V12.7692H14.4419Z" fill="#016FD0"/>
<path id="Vector_4" fill-rule="evenodd" clip-rule="evenodd" d="M18.1954 12.7691L20.2827 10.5421L18.1953 8.32031H19.8109L21.0864 9.73035L22.3655 8.32031H23.9117V8.35532L21.8688 10.5421L23.9117 12.706V12.7691H22.35L21.0519 11.3449L19.7671 12.7691H18.1954Z" fill="#016FD0"/>
<path id="Vector_5" fill-rule="evenodd" clip-rule="evenodd" d="M14.2374 2.63281H16.6834L17.5426 4.58366V2.63281H20.5624L21.0832 4.09438L21.6057 2.63281H23.9116V8.3342H11.7251L14.2374 2.63281Z" fill="#FFFFFE"/>
<path id="Vector_6" fill-rule="evenodd" clip-rule="evenodd" d="M14.7004 3.25L12.7263 7.69518H14.0802L14.4527 6.80501H16.4706L16.8428 7.69518H18.2303L16.2646 3.25H14.7004ZM14.87 5.80744L15.462 4.39237L16.0535 5.80744H14.87Z" fill="#016FD0"/>
<path id="Vector_7" fill-rule="evenodd" clip-rule="evenodd" d="M18.2119 7.69508V3.25L20.1151 3.25654L21.0943 5.98927L22.08 3.25H23.9116V7.69508L22.733 7.70551V4.65216L21.6204 7.69508H20.5446L19.4089 4.64173V7.69508H18.2119Z" fill="#016FD0"/>
</g>
<defs>
<clipPath id="clip0_7047_53543">
<rect width="24" height="16" fill="white"/>
</clipPath>
</defs>
</svg>
