<svg width="24" height="16" viewBox="0 0 24 16" fill="none" xmlns="http://www.w3.org/2000/svg">
<g id="google_pay-ca6cc2f4ee364c7966f8fabf064849fe.svg" clip-path="url(#clip0_7047_53560)">
<path id="Vector" d="M21.9574 0H2.04255C0.914482 0 0 0.924315 0 2.06452V13.9355C0 15.0757 0.914482 16 2.04255 16H21.9574C23.0855 16 24 15.0757 24 13.9355V2.06452C24 0.924315 23.0855 0 21.9574 0Z" fill="white"/>
<path id="Vector_2" d="M2.04255 0.25H21.9574C22.9449 0.25 23.75 1.05986 23.75 2.06452V13.9355C23.75 14.9401 22.9449 15.75 21.9574 15.75H2.04255C1.05507 15.75 0.25 14.9401 0.25 13.9355V2.06452C0.25 1.05986 1.05507 0.25 2.04255 0.25Z" stroke="black" stroke-opacity="0.2" stroke-width="0.5"/>
<path id="Vector_3" fill-rule="evenodd" clip-rule="evenodd" d="M11.6454 5.82857V7.3837H12.6044C12.8329 7.3837 13.0218 7.30676 13.1711 7.15326C13.3246 7.00015 13.4016 6.81733 13.4016 6.60594C13.4016 6.39875 13.3246 6.21821 13.1711 6.06433C13.0218 5.90703 12.8329 5.82819 12.6044 5.82819L11.6454 5.82857ZM11.6454 7.93102V9.73486H11.0725V5.28125H12.5922C12.978 5.28125 13.3056 5.40961 13.5756 5.6667C13.8499 5.92379 13.987 6.23687 13.987 6.60594C13.987 6.98339 13.8499 7.29876 13.5756 7.55128C13.3102 7.80457 12.9819 7.93064 12.5918 7.93064L11.6454 7.93102ZM14.5659 8.80209C14.5659 8.95139 14.6291 9.07556 14.756 9.17535C14.8824 9.27437 15.031 9.32427 15.2008 9.32427C15.4419 9.32427 15.6564 9.23514 15.8453 9.05727C16.0346 8.87864 16.1287 8.66916 16.1287 8.42883C15.95 8.2879 15.7009 8.21744 15.3814 8.21744C15.149 8.21744 14.9548 8.27381 14.7994 8.38579C14.6436 8.49776 14.5659 8.63602 14.5659 8.80209ZM15.3071 6.58728C15.7306 6.58728 16.0647 6.7004 16.31 6.92626C16.5545 7.1525 16.6771 7.46254 16.6771 7.85637V9.73486H16.129V9.31208H16.1043C15.8674 9.6602 15.552 9.83465 15.1574 9.83465C14.8215 9.83465 14.54 9.73486 14.3138 9.53604C14.0875 9.33684 13.9744 9.08812 13.9744 8.78952C13.9744 8.47415 14.0936 8.22353 14.3324 8.0369C14.5713 7.85027 14.8897 7.75696 15.2884 7.75696C15.6282 7.75696 15.9089 7.81904 16.1287 7.94359V7.81256C16.1287 7.61375 16.0498 7.44464 15.8921 7.306C15.7402 7.16928 15.5423 7.09489 15.338 7.09766C15.018 7.09766 14.7651 7.23211 14.5781 7.50215L14.0738 7.1845C14.3519 6.78648 14.7632 6.58728 15.3071 6.58728ZM19.8217 6.68707L17.9096 11.0786H17.3181L18.0281 9.54213L16.7704 6.68707H17.3932L18.3023 8.87674H18.3145L19.1989 6.68669L19.8217 6.68707Z" fill="#3C4043"/>
<path id="Vector_4" fill-rule="evenodd" clip-rule="evenodd" d="M9.33034 7.54372C9.33034 7.36357 9.31511 7.18951 9.28616 7.02344H6.86987V8.00915H8.25398C8.22562 8.16665 8.16564 8.31676 8.07766 8.45044C7.98968 8.58411 7.87552 8.69857 7.74208 8.78691V9.42678H8.56821C9.05192 8.98116 9.33034 8.32224 9.33034 7.54372Z" fill="#4285F4"/>
<path id="Vector_5" fill-rule="evenodd" clip-rule="evenodd" d="M6.86989 10.0458C7.56156 10.0458 8.14354 9.81925 8.56822 9.42847L7.7421 8.78821C7.51243 8.94285 7.21649 9.03312 6.86989 9.03312C6.20183 9.03312 5.63432 8.58292 5.43169 7.97656H4.58081V8.63586C4.79427 9.05992 5.12133 9.41635 5.52552 9.66539C5.92971 9.91442 6.39513 10.0459 6.86989 10.0458Z" fill="#34A853"/>
<path id="Vector_6" fill-rule="evenodd" clip-rule="evenodd" d="M5.43159 7.97486C5.32471 7.65707 5.32471 7.31303 5.43159 6.99524V6.33594H4.58071C4.40083 6.69213 4.30728 7.08564 4.30762 7.48467C4.30762 7.89792 4.40665 8.28832 4.58071 8.63378L5.43159 7.97486Z" fill="#FABB05"/>
<path id="Vector_7" fill-rule="evenodd" clip-rule="evenodd" d="M6.86999 5.93464C7.24782 5.93464 7.58604 6.06413 7.85266 6.31855L8.58394 5.58842C8.1406 5.17555 7.56167 4.92188 6.87037 4.92188C6.39566 4.92182 5.93026 5.05362 5.52608 5.30259C5.12189 5.55156 4.7948 5.9079 4.5813 6.33188L5.43218 6.99119C5.63481 6.38484 6.20193 5.93464 6.86999 5.93464Z" fill="#E94235"/>
</g>
<defs>
<clipPath id="clip0_7047_53560">
<rect width="24" height="16" fill="white"/>
</clipPath>
</defs>
</svg>
