<svg width="24" height="8" viewBox="0 0 24 8" fill="none" xmlns="http://www.w3.org/2000/svg">
<g id="link-69133f6f8d9cceaf6643b54c15305d43.svg" clip-path="url(#clip0_7047_53570)">
<path id="Vector" d="M12.04 1.22848C12.04 0.852475 12.3568 0.546875 12.7296 0.546875C13.1024 0.546875 13.4192 0.854075 13.4192 1.22848C13.4192 1.60288 13.1136 1.91808 12.7296 1.91808C12.3456 1.91808 12.04 1.61248 12.04 1.22848Z" fill="#011E0F"/>
<path id="Vector_2" d="M9.99365 0.640625H11.1937V7.36062H9.99365V0.640625Z" fill="#011E0F"/>
<path id="Vector_3" d="M13.3361 2.5625H12.1265V7.3625H13.3361V2.5625Z" fill="#011E0F"/>
<path id="Vector_4" d="M22.0321 4.79902C22.9425 4.23902 23.5617 3.40542 23.8065 2.56063H22.5969C22.2817 3.36701 21.5585 3.97342 20.7633 4.23102V0.640625H19.5537V7.36061H20.7633V5.36222C21.6865 5.59262 22.4161 6.39102 22.6657 7.36061H23.8833C23.6977 6.34302 23.0017 5.39102 22.0321 4.79902Z" fill="#011E0F"/>
<path id="Vector_5" d="M15.48 3.09529C15.7968 2.67449 16.4144 2.42969 16.9152 2.42969C17.8496 2.42969 18.6224 3.11289 18.624 4.14488V7.35608H17.4144V4.41208C17.4144 3.98808 17.2256 3.49848 16.6128 3.49848C15.8928 3.49848 15.4784 4.13688 15.4784 4.88408V7.35928H14.2688V2.56089H15.48V3.09529Z" fill="#011E0F"/>
<path id="Vector_6" d="M4 8C6.20913 8 8 6.20913 8 4C8 1.79086 6.20913 0 4 0C1.79086 0 0 1.79086 0 4C0 6.20913 1.79086 8 4 8Z" fill="#00D66F"/>
<path id="Vector_7" d="M3.81589 1.60156H2.58228C2.82228 2.60476 3.52309 3.46235 4.39989 4.00155C3.52149 4.54075 2.82228 5.39835 2.58228 6.40155H3.81589C4.12149 5.47355 4.96789 4.66715 6.00788 4.50235V3.49918C4.96628 3.33598 4.11989 2.52956 3.81589 1.60156Z" fill="#011E0F"/>
</g>
<defs>
<clipPath id="clip0_7047_53570">
<rect width="24" height="8" fill="white"/>
</clipPath>
</defs>
</svg>
