<svg width="24" height="16" viewBox="0 0 24 16" fill="none" xmlns="http://www.w3.org/2000/svg">
<g id="visa-fb36094822f73d7bc581f6c0bad1c201.svg" clip-path="url(#clip0_7047_53537)">
<path id="Vector" d="M21.9574 0H2.04255C0.914482 0 0 0.924315 0 2.06452V13.9355C0 15.0757 0.914482 16 2.04255 16H21.9574C23.0855 16 24 15.0757 24 13.9355V2.06452C24 0.924315 23.0855 0 21.9574 0Z" fill="white"/>
<path id="Vector_2" d="M2.04255 0.25H21.9574C22.9449 0.25 23.75 1.05986 23.75 2.06452V13.9355C23.75 14.9401 22.9449 15.75 21.9574 15.75H2.04255C1.05507 15.75 0.25 14.9401 0.25 13.9355V2.06452C0.25 1.05986 1.05507 0.25 2.04255 0.25Z" stroke="black" stroke-opacity="0.2" stroke-width="0.5"/>
<path id="Vector_3" d="M2.59164 5.85019C2.05737 5.554 1.44761 5.31579 0.765869 5.15048L0.794465 5.02174H3.58968C3.96856 5.03516 4.27599 5.15039 4.37603 5.55731L4.9835 8.48467L5.1696 9.36635L6.87103 5.02174H8.70812L5.97732 11.3862H4.14013L2.59164 5.85019ZM10.0594 11.393H8.32212L9.40878 5.02174H11.146L10.0594 11.393ZM16.3574 5.1775L16.1212 6.55331L15.964 6.48565C15.6497 6.35683 15.2347 6.22809 14.6699 6.2417C13.984 6.2417 13.6763 6.51943 13.6692 6.79059C13.6692 7.08887 14.0413 7.28544 14.649 7.57696C15.6499 8.03109 16.1142 8.58683 16.1073 9.31212C16.0932 10.6338 14.9064 11.488 13.0835 11.488C12.3041 11.4811 11.5534 11.3249 11.1459 11.1489L11.389 9.71868L11.6178 9.82048C12.1826 10.0579 12.5542 10.1594 13.2479 10.1594C13.7481 10.1594 14.2844 9.96264 14.2912 9.53581C14.2912 9.25789 14.0627 9.05438 13.3906 8.74259C12.7329 8.43747 11.8537 7.9292 11.8679 7.0141C11.8753 5.77379 13.0835 4.90625 14.7992 4.90625C15.4712 4.90625 16.0148 5.04859 16.3574 5.1775ZM18.6665 9.13591H20.1106C20.0391 8.81737 19.7101 7.29229 19.7101 7.29229L19.5887 6.7433C19.5029 6.9805 19.3529 7.36688 19.3601 7.35328C19.3601 7.35328 18.8096 8.76989 18.6665 9.13591ZM20.811 5.02174L22.2126 11.3929H20.604C20.604 11.3929 20.4466 10.6609 20.3967 10.4372H18.1661C18.1016 10.6065 17.8015 11.3929 17.8015 11.3929H15.9786L18.5592 5.55037C18.738 5.13687 19.0528 5.02174 19.4672 5.02174H20.811Z" fill="#1434CB"/>
</g>
<defs>
<clipPath id="clip0_7047_53537">
<rect width="24" height="16" fill="white"/>
</clipPath>
</defs>
</svg>
